<svg width="20" height="20" viewBox="0 0 20 18" fill="none" xmlns="http://www.w3.org/2000/svg">
<g clip-path="url(#clip0)">
<path d="M19.0899 5.40996C19.0463 4.49866 18.8866 3.87216 18.6578 3.32928C18.4218 2.75302 18.0587 2.23711 17.583 1.80822C17.1182 1.37266 16.5554 1.03421 15.9381 0.819835C15.3463 0.60873 14.6709 0.461362 13.6833 0.421183C12.6883 0.377601 12.3724 0.367523 9.84878 0.367523C7.32518 0.367523 7.00931 0.377601 6.01799 0.41778C5.03037 0.457959 4.35139 0.605458 3.76318 0.816432C3.13852 1.03421 2.57939 1.36926 2.11459 1.80822C1.64255 2.23711 1.27589 2.75643 1.04342 3.326C0.814632 3.87216 0.654921 4.49526 0.611377 5.40656C0.564144 6.32467 0.553223 6.61613 0.553223 8.9447C0.553223 11.2733 0.564144 11.5647 0.607689 12.4794C0.651233 13.3907 0.811086 14.0172 1.03987 14.5601C1.27589 15.1364 1.64255 15.6523 2.11459 16.0812C2.57939 16.5167 3.14221 16.8552 3.75949 17.0696C4.35139 17.2807 5.02668 17.428 6.01445 17.4682C7.00562 17.5085 7.32164 17.5185 9.84523 17.5185C12.3688 17.5185 12.6847 17.5085 13.676 17.4682C14.6636 17.428 15.3426 17.2807 15.9308 17.0696C17.18 16.6239 18.1676 15.7126 18.6506 14.5601C18.8792 14.014 19.0391 13.3907 19.0826 12.4794C19.1262 11.5647 19.1371 11.2733 19.1371 8.9447C19.1371 6.61613 19.1334 6.32467 19.0899 5.40996ZM17.416 12.4124C17.376 13.25 17.2236 13.7023 17.0965 14.0039C16.7841 14.7511 16.1415 15.3441 15.3317 15.6323C15.0049 15.7495 14.5112 15.8902 13.6069 15.927C12.6266 15.9673 12.3325 15.9773 9.85247 15.9773C7.37241 15.9773 7.07469 15.9673 6.09785 15.927C5.19008 15.8902 4.69988 15.7495 4.37309 15.6323C3.97012 15.4948 3.60333 15.2771 3.30561 14.9923C2.99697 14.7142 2.76095 14.3791 2.61202 14.0073C2.48493 13.7058 2.33245 13.25 2.29259 12.4158C2.24891 11.5112 2.23813 11.2398 2.23813 8.95137C2.23813 6.66298 2.24891 6.38827 2.29259 5.48705C2.33245 4.64944 2.48493 4.19712 2.61202 3.89558C2.76095 3.52363 2.99697 3.18531 3.3093 2.91047C3.61056 2.62568 3.97367 2.4079 4.37678 2.27061C4.70357 2.15334 5.19746 2.01265 6.10154 1.97574C7.08193 1.93556 7.3761 1.92549 9.85601 1.92549C12.3398 1.92549 12.6338 1.93556 13.6106 1.97574C14.5184 2.01265 15.0086 2.15334 15.3354 2.27061C15.7384 2.4079 16.1052 2.62568 16.4029 2.91047C16.7115 3.18858 16.9475 3.52363 17.0965 3.89558C17.2236 4.19712 17.376 4.65271 17.416 5.48705C17.4596 6.39167 17.4705 6.66298 17.4705 8.95137C17.4705 11.2398 17.4596 11.5078 17.416 12.4124Z" fill="#AFB1B8"/>
<path d="M9.8486 4.53882C7.21252 4.53882 5.07373 6.51219 5.07373 8.94467C5.07373 11.3772 7.21252 13.3505 9.8486 13.3505C12.4848 13.3505 14.6235 11.3772 14.6235 8.94467C14.6235 6.51219 12.4848 4.53882 9.8486 4.53882ZM9.8486 11.8026C8.13845 11.8026 6.75126 10.5228 6.75126 8.94467C6.75126 7.36655 8.13845 6.0867 9.8486 6.0867C11.5589 6.0867 12.9459 7.36655 12.9459 8.94467C12.9459 10.5228 11.5589 11.8026 9.8486 11.8026Z" fill="#AFB1B8"/>
<path d="M15.9273 4.36466C15.9273 4.93267 15.4282 5.39322 14.8125 5.39322C14.1969 5.39322 13.6978 4.93267 13.6978 4.36466C13.6978 3.79652 14.1969 3.33609 14.8125 3.33609C15.4282 3.33609 15.9273 3.79652 15.9273 4.36466Z" fill="#AFB1B8"/>
</g>
<defs>
<clipPath id="clip0">
<rect width="18.5875" height="17.151" fill="white" transform="translate(0.520508 0.367523)"/>
</clipPath>
</defs>
</svg>
