<svg width="19" height="18" viewBox="0 0 19 18" fill="none" xmlns="http://www.w3.org/2000/svg">
<g clip-path="url(#clip0)">
<path d="M18.6621 17.5185V17.5178H18.6668V11.2277C18.6668 8.15053 17.9488 5.78012 14.0501 5.78012C12.1759 5.78012 10.9181 6.72914 10.4046 7.62886H10.3504V6.0674H6.65381V17.5178H10.503V11.848C10.503 10.3551 10.8097 8.91161 12.8132 8.91161C14.7874 8.91161 14.8168 10.6153 14.8168 11.9438V17.5185H18.6621Z" fill="#AFB1B8"/>
<path d="M0.385742 6.06805H4.23955V17.5185H0.385742V6.06805Z" fill="#AFB1B8"/>
<path d="M2.31115 0.367523C1.07895 0.367523 0.0791016 1.2901 0.0791016 2.42707C0.0791016 3.56404 1.07895 4.50592 2.31115 4.50592C3.54335 4.50592 4.5432 3.56404 4.5432 2.42707C4.54243 1.2901 3.54257 0.367523 2.31115 0.367523V0.367523Z" fill="#AFB1B8"/>
</g>
<defs>
<clipPath id="clip0">
<rect width="18.5875" height="17.151" fill="white" transform="translate(0.0791016 0.367523)"/>
</clipPath>
</defs>
</svg>
