<svg width="39" height="43" viewBox="0 0 39 43" fill="none" xmlns="http://www.w3.org/2000/svg">
<path d="M5.93692 41.7946C5.95096 41.795 5.9648 41.7982 5.9776 41.8041C5.99041 41.81 6.00194 41.8184 6.01152 41.8289L6.20404 42.0446C6.0546 42.2191 5.8699 42.3588 5.66257 42.4539C5.41978 42.5577 5.15812 42.6078 4.89489 42.6009C4.64754 42.6061 4.40178 42.5594 4.17293 42.4637C3.96649 42.3758 3.78101 42.2437 3.62905 42.0764C3.47396 41.9029 3.3545 41.6996 3.2777 41.4784C3.19359 41.2318 3.15207 40.9723 3.15497 40.7113C3.15155 40.4486 3.19644 40.1875 3.28733 39.9417C3.3714 39.7191 3.4982 39.5158 3.66034 39.3436C3.82467 39.1749 4.02124 39.0423 4.23791 38.9539C4.47493 38.8604 4.72733 38.8138 4.98152 38.8167C5.21764 38.8108 5.45251 38.8534 5.6722 38.9417C5.8628 39.0259 6.0378 39.1428 6.1896 39.2873L6.02836 39.5177C6.01723 39.5339 6.00338 39.548 5.98745 39.5593C5.96843 39.5726 5.94544 39.5787 5.92248 39.5765C5.8975 39.5747 5.87342 39.5663 5.85269 39.552L5.76605 39.4907L5.64573 39.4123C5.59378 39.3832 5.53991 39.3578 5.48449 39.3363C5.41311 39.3103 5.3399 39.2898 5.26549 39.275C5.17106 39.2573 5.07513 39.2491 4.97912 39.2505C4.79607 39.2482 4.61442 39.2832 4.44487 39.3534C4.28674 39.4185 4.14401 39.5171 4.02613 39.6427C3.90613 39.7762 3.81366 39.9329 3.75419 40.1034C3.68642 40.2985 3.65301 40.5043 3.65552 40.7113C3.65263 40.9214 3.68603 41.1305 3.75419 41.3289C3.81292 41.498 3.90367 41.6537 4.02132 41.7872C4.13154 41.9117 4.26816 42.0089 4.4208 42.0715C4.57789 42.1379 4.7465 42.1712 4.91655 42.1696C5.01477 42.1711 5.11296 42.1646 5.21014 42.15C5.36883 42.1302 5.52106 42.0741 5.65535 41.9858C5.72271 41.9405 5.7863 41.8897 5.84547 41.8338C5.87021 41.8098 5.90275 41.7958 5.93692 41.7946Z" fill="#AFB1B8"/>
<path d="M11.496 40.7108C11.499 40.9709 11.4549 41.2292 11.366 41.473C11.2876 41.6941 11.1641 41.8958 11.0035 42.0648C10.843 42.2338 10.6491 42.3662 10.4347 42.4533C9.96352 42.6363 9.44268 42.6363 8.97151 42.4533C8.75846 42.3648 8.56585 42.2321 8.40597 42.0636C8.24554 41.8916 8.1211 41.6882 8.04018 41.4657C7.86682 40.972 7.86682 40.4325 8.04018 39.9388C8.12227 39.7162 8.24656 39.5122 8.40597 39.3384C8.56721 39.1752 8.75972 39.0476 8.97151 38.9635C9.44209 38.7772 9.96412 38.7772 10.4347 38.9635C10.6485 39.0519 10.8419 39.1846 11.0026 39.3531C11.1611 39.5235 11.2846 39.7243 11.366 39.9437C11.4552 40.1892 11.4993 40.4492 11.496 40.7108ZM10.9906 40.7108C10.9944 40.5028 10.9635 40.2956 10.8992 40.0981C10.8452 39.929 10.7576 39.7729 10.6417 39.6399C10.5288 39.5139 10.3899 39.4152 10.235 39.3507C9.89259 39.2167 9.51361 39.2167 9.17126 39.3507C9.01631 39.4152 8.87738 39.5139 8.76455 39.6399C8.64702 39.7722 8.55843 39.9284 8.50464 40.0981C8.3822 40.4971 8.3822 40.9246 8.50464 41.3235C8.55896 41.4931 8.64749 41.6492 8.76455 41.7818C8.87752 41.907 9.01646 42.0049 9.17126 42.0685C9.51423 42.1991 9.89198 42.1991 10.235 42.0685C10.3897 42.0049 10.5287 41.907 10.6417 41.7818C10.7571 41.6484 10.8447 41.4925 10.8992 41.3235C10.9638 41.1261 10.9947 40.9189 10.9906 40.7108Z" fill="#AFB1B8"/>
<path d="M15.2891 41.3532L15.3396 41.4904C15.3589 41.4414 15.3757 41.3973 15.395 41.3532C15.4133 41.3071 15.4342 41.2621 15.4576 41.2184L16.6873 38.942C16.7114 38.9028 16.733 38.8783 16.7571 38.8709C16.7898 38.8608 16.824 38.8566 16.8582 38.8587H17.2216V42.5613H16.7908V39.8388C16.7908 39.8045 16.7908 39.7653 16.7908 39.7237C16.7885 39.6812 16.7885 39.6387 16.7908 39.5962L15.5538 41.9046C15.5381 41.9391 15.513 41.9684 15.4814 41.9888C15.4498 42.0092 15.4131 42.02 15.3757 42.0197H15.306C15.2685 42.0203 15.2317 42.0097 15.2 41.9892C15.1684 41.9687 15.1433 41.9393 15.1279 41.9046L13.8548 39.5815C13.8548 39.6256 13.8548 39.6698 13.8548 39.7139C13.8548 39.758 13.8548 39.7972 13.8548 39.8315V42.5539H13.4385V38.8587H13.8019C13.836 38.8566 13.8702 38.8608 13.9029 38.8709C13.9328 38.886 13.9566 38.9111 13.9703 38.942L15.2265 41.2209C15.2512 41.263 15.2722 41.3073 15.2891 41.3532Z" fill="#AFB1B8"/>
<path d="M19.9168 41.1692V42.5562H19.4355V38.8585H20.5088C20.7114 38.8546 20.9135 38.8818 21.1081 38.9394C21.2638 38.9843 21.4083 39.0629 21.5316 39.1697C21.6385 39.2699 21.7209 39.394 21.7722 39.5324C21.829 39.6832 21.8568 39.8438 21.8541 40.0053C21.8562 40.1675 21.8259 40.3284 21.765 40.4782C21.7072 40.6201 21.6183 40.7466 21.5051 40.8482C21.3816 40.9595 21.2365 41.043 21.0792 41.0933C20.8918 41.1542 20.6959 41.1832 20.4992 41.179L19.9168 41.1692ZM19.9168 40.7723H20.4992C20.6257 40.7739 20.7516 40.7549 20.8722 40.7159C20.9717 40.6818 21.0633 40.6277 21.1417 40.5566C21.214 40.4888 21.27 40.405 21.3054 40.3116C21.3448 40.2128 21.3644 40.107 21.3631 40.0004C21.3687 39.8976 21.3523 39.7948 21.3149 39.6992C21.2775 39.6035 21.22 39.5174 21.1466 39.4466C20.9627 39.3004 20.7318 39.2296 20.4992 39.2481H19.9168V40.7723Z" fill="#AFB1B8"/>
<path d="M26.3857 42.5612H26.0054C25.9673 42.5626 25.9298 42.5505 25.8996 42.5268C25.8723 42.5038 25.8508 42.4744 25.837 42.4411L25.5097 41.5466H23.866L23.5267 42.4411C23.5142 42.4738 23.4935 42.5025 23.4666 42.5244C23.436 42.5495 23.3975 42.5625 23.3583 42.5612H22.978L24.4219 38.8582H24.9225L26.3857 42.5612ZM24.0032 41.1863H25.3605L24.7877 39.6791C24.744 39.5658 24.7078 39.4495 24.6794 39.3311L24.6241 39.5247C24.6073 39.5836 24.588 39.6375 24.5712 39.6816L24.0032 41.1863Z" fill="#AFB1B8"/>
<path d="M28.4648 38.8754C28.4935 38.8915 28.5183 38.9141 28.537 38.9416L30.6427 41.7329C30.6427 41.6887 30.6427 41.6446 30.6427 41.603C30.6427 41.5613 30.6427 41.5197 30.6427 41.4804V38.8582H31.0734V42.5612H30.8328C30.7986 42.5622 30.7647 42.5547 30.7341 42.5391C30.7044 42.5215 30.6782 42.4982 30.6571 42.4705L28.5538 39.6817C28.5561 39.7241 28.5561 39.7666 28.5538 39.8091C28.5538 39.8508 28.5538 39.8875 28.5538 39.9218V42.5612H28.123V38.8582H28.3781C28.4079 38.8574 28.4375 38.8632 28.4648 38.8754Z" fill="#AFB1B8"/>
<path d="M34.6207 41.0884V42.5588H34.1394V41.0884L32.8086 38.8584H33.2394C33.2765 38.8561 33.3132 38.8674 33.3429 38.8902C33.369 38.914 33.391 38.9422 33.4078 38.9735L34.2405 40.4121C34.2742 40.4733 34.3031 40.5297 34.3271 40.5836C34.3512 40.6375 34.3705 40.689 34.3873 40.7405L34.4499 40.5812C34.4732 40.5229 34.5006 40.4664 34.5317 40.4121L35.3523 38.9637C35.3696 38.9348 35.3907 38.9084 35.4149 38.8853C35.4435 38.8599 35.4805 38.8467 35.5184 38.8486H35.954L34.6207 41.0884Z" fill="#AFB1B8"/>
<path d="M15.0508 32.6443C15.2602 32.6712 15.4719 32.6933 15.6861 32.7129C18.9333 31.2337 21.6803 28.8127 23.5837 25.7526C25.4872 22.6924 26.4626 19.1289 26.3881 15.5073L22.8096 11.8633C23.5372 15.7191 23.1968 19.705 21.8266 23.3751C20.4563 27.0452 18.1102 30.2546 15.0508 32.6443Z" fill="#AFB1B8"/>
<path d="M13.7729 32.4748L13.8692 32.4944C17.1385 30.1132 19.6311 26.788 21.0245 22.9488C22.418 19.1097 22.6483 14.9331 21.6857 10.9592L16.5886 5.76904C18.6503 10.0353 19.4801 14.8098 18.9817 19.5374C18.4832 24.265 16.677 28.7514 13.7729 32.4748Z" fill="#AFB1B8"/>
<path d="M31.0589 19.7861C30.193 23.7654 28.0898 27.3541 25.0618 30.0196C24.1774 30.8023 23.2235 31.4996 22.2124 32.1025C24.6781 31.3646 26.9444 30.0598 28.8366 28.289C30.7289 26.5181 32.1964 24.3284 33.1262 21.8887L31.0589 19.7861Z" fill="#AFB1B8"/>
<path d="M30.2482 19.2002L27.3049 16.2031C27.2487 19.6201 26.2947 22.9594 24.5422 25.8739C22.7897 28.7885 20.3026 31.1718 17.3394 32.7764H17.3538C18.0141 32.7761 18.6739 32.736 19.3296 32.6563C22.0988 31.5053 24.5452 29.6742 26.4504 27.3262C28.3556 24.9782 29.6603 22.1865 30.2482 19.2002Z" fill="#AFB1B8"/>
<path d="M14.1987 3.5803L10.6876 0C7.5487 1.23513 4.84914 3.40643 2.9422 6.22973C1.03527 9.05304 0.00979471 12.3968 0 15.8234H0C0.0117642 19.6097 1.26328 23.2838 3.55646 26.2643C5.84965 29.2448 9.0535 31.3614 12.6609 32.2791C15.8813 28.2838 17.7667 23.347 18.0433 18.186C18.3198 13.025 16.9731 7.90862 14.1987 3.5803Z" fill="#AFB1B8"/>
<path d="M38.3607 18.649C38.348 14.1568 36.5898 9.85223 33.4704 6.67574C30.3509 3.49924 26.1236 1.70898 21.712 1.69605C19.6735 1.6939 17.6523 2.07696 15.751 2.82576L37.2488 24.7166C37.9849 22.7815 38.3619 20.7241 38.3607 18.649Z" fill="#AFB1B8"/>
</svg>
