<svg width="75" height="43" viewBox="0 0 75 43" fill="none" xmlns="http://www.w3.org/2000/svg">
<path d="M11.6037 12.8306H11.6011C9.48445 12.8306 7.76855 14.6177 7.76855 16.8223V16.8249C7.76855 19.0295 9.48445 20.8167 11.6011 20.8167H11.6037C13.7203 20.8167 15.4362 19.0295 15.4362 16.8249V16.8223C15.4362 14.6177 13.7203 12.8306 11.6037 12.8306Z" fill="#2196F3"/>
<path d="M39.892 11.5545C39.886 8.49242 38.7156 5.55752 36.637 3.39207C34.5585 1.22661 31.7409 0.00695286 28.8011 0V0C25.8603 0.00556265 23.0415 1.22461 20.9618 3.39022C18.8821 5.55582 17.7111 8.49151 17.7051 11.5545V28.4402C17.7051 28.4402 39.8894 25.8667 39.892 11.5571V11.5545Z" fill="#2196F3"/>
<path d="M0 33.9823C0.00533217 36.1129 0.820129 38.1547 2.26635 39.6615C3.71256 41.1683 5.67261 42.0177 7.7182 42.0239C9.76335 42.0177 11.723 41.1687 13.1692 39.6625C14.6153 38.1562 15.4304 36.1151 15.4364 33.9849V22.2356C15.4364 22.2356 0 24.0276 0 33.9823ZM7.7182 36.0874C7.31846 36.0874 6.92769 35.964 6.59532 35.7326C6.26295 35.5013 6.00389 35.1726 5.85092 34.7879C5.69794 34.4032 5.65792 33.98 5.7359 33.5716C5.81389 33.1632 6.00638 32.7881 6.28904 32.4937C6.5717 32.1993 6.93184 31.9988 7.3239 31.9176C7.71596 31.8364 8.12234 31.8781 8.49166 32.0374C8.86097 32.1967 9.17663 32.4665 9.39871 32.8127C9.6208 33.1589 9.73933 33.5659 9.73933 33.9823C9.74033 34.2594 9.68879 34.534 9.58766 34.7903C9.48654 35.0466 9.33782 35.2796 9.15004 35.476C8.96227 35.6723 8.73912 35.828 8.49341 35.9343C8.2477 36.0406 7.98426 36.0953 7.7182 36.0953V36.0874Z" fill="#2196F3"/>
<path d="M23.6636 34.7812H21.9761V36.5244H21.0972V32.2588H23.8745V32.9707H21.9761V34.0723H23.6636V34.7812ZM27.8882 34.4883C27.8882 34.9082 27.814 35.2764 27.6655 35.5928C27.5171 35.9092 27.3042 36.1533 27.0269 36.3252C26.7515 36.4971 26.4351 36.583 26.0776 36.583C25.7241 36.583 25.4087 36.498 25.1313 36.3281C24.854 36.1582 24.6392 35.916 24.4868 35.6016C24.3345 35.2852 24.2573 34.9219 24.2554 34.5117V34.3008C24.2554 33.8809 24.3306 33.5117 24.481 33.1934C24.6333 32.873 24.8472 32.6279 25.1226 32.458C25.3999 32.2861 25.7163 32.2002 26.0718 32.2002C26.4272 32.2002 26.7427 32.2861 27.0181 32.458C27.2954 32.6279 27.5093 32.873 27.6597 33.1934C27.812 33.5117 27.8882 33.8799 27.8882 34.2979V34.4883ZM26.9976 34.2949C26.9976 33.8477 26.9175 33.5078 26.7573 33.2754C26.5972 33.043 26.3687 32.9268 26.0718 32.9268C25.7769 32.9268 25.5493 33.042 25.3892 33.2725C25.229 33.501 25.1479 33.8369 25.146 34.2803V34.4883C25.146 34.9238 25.2261 35.2617 25.3862 35.502C25.5464 35.7422 25.7769 35.8623 26.0776 35.8623C26.3726 35.8623 26.5991 35.7471 26.7573 35.5166C26.9155 35.2842 26.9956 34.9463 26.9976 34.5029V34.2949ZM30.7388 35.4053C30.7388 35.2393 30.6802 35.1123 30.563 35.0244C30.4458 34.9346 30.2349 34.8408 29.9302 34.7432C29.6255 34.6436 29.3843 34.5459 29.2065 34.4502C28.7222 34.1885 28.48 33.8359 28.48 33.3926C28.48 33.1621 28.5444 32.957 28.6733 32.7773C28.8042 32.5957 28.9907 32.4541 29.2329 32.3525C29.4771 32.251 29.7505 32.2002 30.0532 32.2002C30.3579 32.2002 30.6294 32.2559 30.8677 32.3672C31.106 32.4766 31.2905 32.6318 31.4214 32.833C31.5542 33.0342 31.6206 33.2627 31.6206 33.5186H30.7417C30.7417 33.3232 30.6802 33.1719 30.5571 33.0645C30.4341 32.9551 30.2612 32.9004 30.0386 32.9004C29.8237 32.9004 29.6567 32.9463 29.5376 33.0381C29.4185 33.1279 29.3589 33.2471 29.3589 33.3955C29.3589 33.5342 29.4282 33.6504 29.5669 33.7441C29.7075 33.8379 29.9136 33.9258 30.1851 34.0078C30.6851 34.1582 31.0493 34.3447 31.2778 34.5674C31.5063 34.79 31.6206 35.0674 31.6206 35.3994C31.6206 35.7686 31.481 36.0586 31.2017 36.2695C30.9224 36.4785 30.5464 36.583 30.0737 36.583C29.7456 36.583 29.4468 36.5234 29.1772 36.4043C28.9077 36.2832 28.7017 36.1182 28.5591 35.9092C28.4185 35.7002 28.3481 35.458 28.3481 35.1826H29.23C29.23 35.6533 29.5112 35.8887 30.0737 35.8887C30.2827 35.8887 30.4458 35.8467 30.563 35.7627C30.6802 35.6768 30.7388 35.5576 30.7388 35.4053ZM35.4292 32.9707H34.1226V36.5244H33.2437V32.9707H31.9546V32.2588H35.4292V32.9707ZM38.4995 34.6758H36.812V35.8184H38.7925V36.5244H35.9331V32.2588H38.7866V32.9707H36.812V33.9873H38.4995V34.6758ZM40.8872 34.9629H40.187V36.5244H39.3081V32.2588H40.8931C41.397 32.2588 41.7856 32.3711 42.0591 32.5957C42.3325 32.8203 42.4692 33.1377 42.4692 33.5479C42.4692 33.8389 42.4058 34.082 42.2788 34.2773C42.1538 34.4707 41.9634 34.625 41.7075 34.7402L42.6304 36.4834V36.5244H41.687L40.8872 34.9629ZM40.187 34.251H40.896C41.1167 34.251 41.2876 34.1953 41.4087 34.084C41.5298 33.9707 41.5903 33.8154 41.5903 33.6182C41.5903 33.417 41.5327 33.2588 41.4175 33.1436C41.3042 33.0283 41.1294 32.9707 40.8931 32.9707H40.187V34.251ZM45.5132 35.0215V36.5244H44.6343V32.2588H46.2983C46.6187 32.2588 46.8999 32.3174 47.1421 32.4346C47.3862 32.5518 47.5737 32.7188 47.7046 32.9355C47.8354 33.1504 47.9009 33.3955 47.9009 33.6709C47.9009 34.0889 47.7573 34.4189 47.4702 34.6611C47.1851 34.9014 46.7896 35.0215 46.2837 35.0215H45.5132ZM45.5132 34.3096H46.2983C46.5308 34.3096 46.7075 34.2549 46.8286 34.1455C46.9517 34.0361 47.0132 33.8799 47.0132 33.6768C47.0132 33.4678 46.9517 33.2988 46.8286 33.1699C46.7056 33.041 46.5356 32.9746 46.3188 32.9707H45.5132V34.3096ZM51.0737 34.6758H49.3862V35.8184H51.3667V36.5244H48.5073V32.2588H51.3608V32.9707H49.3862V33.9873H51.0737V34.6758ZM55.1519 32.9707H53.8452V36.5244H52.9663V32.9707H51.6772V32.2588H55.1519V32.9707ZM58.2222 34.6758H56.5347V35.8184H58.5151V36.5244H55.6558V32.2588H58.5093V32.9707H56.5347V33.9873H58.2222V34.6758ZM60.6099 34.9629H59.9097V36.5244H59.0308V32.2588H60.6157C61.1196 32.2588 61.5083 32.3711 61.7817 32.5957C62.0552 32.8203 62.1919 33.1377 62.1919 33.5479C62.1919 33.8389 62.1284 34.082 62.0015 34.2773C61.8765 34.4707 61.686 34.625 61.4302 34.7402L62.353 36.4834V36.5244H61.4097L60.6099 34.9629ZM59.9097 34.251H60.6187C60.8394 34.251 61.0103 34.1953 61.1313 34.084C61.2524 33.9707 61.313 33.8154 61.313 33.6182C61.313 33.417 61.2554 33.2588 61.1401 33.1436C61.0269 33.0283 60.8521 32.9707 60.6157 32.9707H59.9097V34.251ZM65.0747 35.4053C65.0747 35.2393 65.0161 35.1123 64.8989 35.0244C64.7817 34.9346 64.5708 34.8408 64.2661 34.7432C63.9614 34.6436 63.7202 34.5459 63.5425 34.4502C63.0581 34.1885 62.8159 33.8359 62.8159 33.3926C62.8159 33.1621 62.8804 32.957 63.0093 32.7773C63.1401 32.5957 63.3267 32.4541 63.5688 32.3525C63.813 32.251 64.0864 32.2002 64.3892 32.2002C64.6938 32.2002 64.9653 32.2559 65.2036 32.3672C65.4419 32.4766 65.6265 32.6318 65.7573 32.833C65.8901 33.0342 65.9565 33.2627 65.9565 33.5186H65.0776C65.0776 33.3232 65.0161 33.1719 64.8931 33.0645C64.77 32.9551 64.5972 32.9004 64.3745 32.9004C64.1597 32.9004 63.9927 32.9463 63.8735 33.0381C63.7544 33.1279 63.6948 33.2471 63.6948 33.3955C63.6948 33.5342 63.7642 33.6504 63.9028 33.7441C64.0435 33.8379 64.2495 33.9258 64.521 34.0078C65.021 34.1582 65.3853 34.3447 65.6138 34.5674C65.8423 34.79 65.9565 35.0674 65.9565 35.3994C65.9565 35.7686 65.8169 36.0586 65.5376 36.2695C65.2583 36.4785 64.8823 36.583 64.4097 36.583C64.0815 36.583 63.7827 36.5234 63.5132 36.4043C63.2437 36.2832 63.0376 36.1182 62.895 35.9092C62.7544 35.7002 62.6841 35.458 62.6841 35.1826H63.5659C63.5659 35.6533 63.8472 35.8887 64.4097 35.8887C64.6187 35.8887 64.7817 35.8467 64.8989 35.7627C65.0161 35.6768 65.0747 35.5576 65.0747 35.4053Z" fill="#2196F3"/>
</svg>
