<svg width="83" height="46" viewBox="0 0 83 46" fill="none" xmlns="http://www.w3.org/2000/svg">
<path d="M41.8605 21.3533C41.4694 20.7432 41.2823 20.022 41.3267 19.2962V16.3135C41.3267 15.3992 41.5036 14.7044 41.8575 14.2291C42.2113 13.7537 42.819 13.517 43.6806 13.5191C44.4903 13.5191 45.065 13.7213 45.4049 14.1259C45.7755 14.6421 45.9559 15.2733 45.9146 15.91V16.6109H44.4663V15.9009C44.4714 15.6685 44.4574 15.4361 44.4243 15.2061C44.4035 15.0488 44.3305 14.9033 44.2174 14.7934C44.0687 14.675 43.8813 14.6175 43.6926 14.6326C43.4942 14.6176 43.2974 14.6782 43.1409 14.8025C43.0148 14.9243 42.9307 15.0838 42.901 15.2576C42.8595 15.5011 42.8404 15.7479 42.844 15.995V19.6147C42.8212 19.964 42.8851 20.3134 43.0299 20.6312C43.102 20.7387 43.202 20.824 43.319 20.8775C43.4359 20.9311 43.5653 20.9508 43.6926 20.9346C43.8782 20.9501 44.0623 20.8912 44.2054 20.7708C44.3234 20.6523 44.3993 20.4976 44.4213 20.3308C44.4551 20.0907 44.4702 19.8482 44.4663 19.6056V18.8714H45.9146V19.5419C45.9553 20.2056 45.7793 20.8644 45.4138 21.4171C45.081 21.86 44.5143 22.0815 43.6806 22.0815C42.847 22.0815 42.2173 21.8449 41.8605 21.3533Z" fill="#AFB1B8"/>
<path d="M47.8905 21.3837C47.5247 20.9194 47.3418 20.2428 47.3418 19.3477V16.2104C47.3418 15.3244 47.5247 14.6538 47.8905 14.1987C48.2564 13.7436 48.8681 13.517 49.7257 13.5191C50.5772 13.5191 51.186 13.7456 51.5518 14.1987C51.9176 14.6538 52.1035 15.3244 52.1035 16.2104V19.3477C52.1035 20.2337 51.9176 20.9134 51.5458 21.3806C51.174 21.8479 50.5683 22.0815 49.7257 22.0815C48.8831 22.0815 48.2594 21.8449 47.8905 21.3837ZM50.4003 20.6312C50.5313 20.3404 50.591 20.0219 50.5742 19.7027V15.8615C50.5911 15.5485 50.5324 15.2361 50.4033 14.9512C50.3299 14.8414 50.2274 14.7547 50.1075 14.7011C49.9877 14.6474 49.8554 14.629 49.7257 14.6478C49.5955 14.6294 49.463 14.6481 49.3427 14.7017C49.2225 14.7553 49.1194 14.8417 49.045 14.9512C48.9131 15.2353 48.8533 15.5481 48.8711 15.8615V19.7209C48.8528 20.0402 48.9126 20.3591 49.045 20.6494C49.1294 20.7473 49.2336 20.8257 49.3505 20.8795C49.4674 20.9332 49.5943 20.961 49.7227 20.961C49.8511 20.961 49.978 20.9332 50.0948 20.8795C50.2117 20.8257 50.3159 20.7473 50.4003 20.6494V20.6312Z" fill="#AFB1B8"/>
<path d="M53.846 13.6106H55.4053L56.5778 19.3992L57.7773 13.6106H59.2946L59.4475 21.9658H58.326L58.2061 16.159L57.0486 21.9658H56.149L54.9495 16.1378L54.8386 21.9658H53.7051L53.846 13.6106Z" fill="#AFB1B8"/>
<path d="M61.1955 13.6106H63.6244C65.0237 13.6106 65.7234 14.4014 65.7234 15.9831C65.7234 17.498 64.9867 18.2544 63.5134 18.2524H62.6858V21.9658H61.1865L61.1955 13.6106ZM63.2705 17.1814C63.4187 17.2005 63.5691 17.1867 63.7115 17.1411C63.8539 17.0956 63.9848 17.0193 64.0952 16.9175C64.2671 16.6353 64.3429 16.3039 64.3111 15.974C64.3189 15.7191 64.2947 15.4642 64.2391 15.2155C64.2177 15.1324 64.1802 15.0545 64.1287 14.9863C64.0772 14.918 64.0128 14.8608 63.9392 14.8181C63.7311 14.7171 63.501 14.6711 63.2705 14.6846H62.6888V17.1814H63.2705Z" fill="#AFB1B8"/>
<path d="M67.8856 13.6106H69.4959L71.1481 21.9658H69.7507L69.4239 20.0393H67.9876L67.6517 21.9658H66.2334L67.8856 13.6106ZM69.262 19.0715L68.7012 15.5644L68.1405 19.0715H69.262Z" fill="#AFB1B8"/>
<path d="M72.4825 13.6106H73.532L75.541 18.3768V13.6106H76.7854V21.9658H75.7869L73.7659 16.9903V21.9658H72.4795L72.4825 13.6106Z" fill="#AFB1B8"/>
<path d="M79.6995 18.7801L78.0293 13.6223H79.4356L80.4552 16.9354L81.4117 13.6223H82.7881L81.1389 18.7801V21.9658H79.6995V18.7801Z" fill="#AFB1B8"/>
<path d="M44.1757 25.6189V26.0558H42.9522V29.4509H42.4394V26.0558H41.21V25.6189H44.1757Z" fill="#AFB1B8"/>
<path d="M48.0101 29.4512H47.6143C47.5741 29.4537 47.5344 29.4407 47.5034 29.4148C47.4734 29.3925 47.4505 29.362 47.4374 29.3268L47.0835 28.4166H45.3863L45.0324 29.3268C45.0224 29.3649 45.0039 29.4001 44.9785 29.43C44.9471 29.4554 44.9076 29.4683 44.8675 29.4664H44.4717L45.971 25.6345H46.4928L48.0101 29.4512ZM45.5272 28.0283H46.9426L46.3429 26.4688C46.2986 26.3509 46.2616 26.2303 46.2319 26.1078C46.2109 26.1806 46.1929 26.2504 46.1749 26.3111L46.121 26.4719L45.5272 28.0283Z" fill="#AFB1B8"/>
<path d="M50.5954 29.0748C50.6893 29.0798 50.7833 29.0798 50.8772 29.0748C50.9583 29.0664 51.0385 29.0512 51.1171 29.0293C51.1906 29.0111 51.2627 28.9878 51.333 28.9595C51.399 28.9322 51.4649 28.8988 51.5339 28.8655V28.0037H50.9342C50.9194 28.0046 50.9045 28.0023 50.8906 27.9971C50.8767 27.9919 50.8639 27.9838 50.8532 27.9734C50.8434 27.9648 50.8356 27.954 50.8304 27.9419C50.8252 27.9299 50.8228 27.9167 50.8233 27.9036V27.6093H51.9867V29.0779C51.8917 29.1466 51.7915 29.2075 51.6868 29.2599C51.5799 29.3133 51.4685 29.357 51.354 29.3904C51.2314 29.4269 51.106 29.4533 50.9792 29.4693C50.8338 29.4856 50.6877 29.4937 50.5414 29.4936C50.2828 29.4958 50.0262 29.4473 49.7858 29.351C49.5613 29.2596 49.3573 29.1234 49.186 28.9504C49.0191 28.7757 48.8877 28.5695 48.7992 28.3436C48.7047 28.0896 48.6579 27.8199 48.6613 27.5486C48.6582 27.2755 48.7039 27.0041 48.7962 26.7475C48.8825 26.5204 49.0142 26.3138 49.1831 26.1406C49.3542 25.9682 49.5582 25.833 49.7828 25.7431C50.0395 25.6454 50.3121 25.597 50.5864 25.6005C50.726 25.6003 50.8653 25.6115 51.0032 25.6339C51.125 25.654 51.2446 25.6865 51.36 25.731C51.4649 25.7709 51.5654 25.8217 51.6599 25.8827C51.7518 25.9426 51.839 26.0095 51.9207 26.083L51.7768 26.3197C51.7655 26.3413 51.7487 26.3594 51.7282 26.3722C51.7076 26.3851 51.684 26.392 51.6599 26.3925C51.6267 26.3914 51.5945 26.3809 51.5669 26.3621C51.5219 26.3379 51.4739 26.3075 51.42 26.2711C51.3562 26.2307 51.289 26.1961 51.2191 26.1679C51.1297 26.1317 51.0374 26.1032 50.9432 26.083C50.8176 26.0596 50.6901 26.0484 50.5624 26.0496C50.3646 26.0474 50.1681 26.0834 49.9837 26.1558C49.8168 26.2235 49.6664 26.3271 49.5429 26.4592C49.4186 26.597 49.3237 26.7592 49.264 26.9356C49.1301 27.3507 49.1301 27.7981 49.264 28.2131C49.3296 28.3933 49.4318 28.5576 49.5639 28.6955C49.6868 28.827 49.8361 28.9304 50.0017 28.999C50.1923 29.0652 50.3944 29.091 50.5954 29.0748Z" fill="#AFB1B8"/>
<path d="M55.3748 29.014H57.0121V29.4509H54.874V25.6189H55.3868L55.3748 29.014Z" fill="#AFB1B8"/>
<path d="M58.7159 29.4509H58.2031V25.6189H58.7159V29.4509Z" fill="#AFB1B8"/>
<path d="M60.6223 25.6371C60.6528 25.6547 60.6793 25.6785 60.7003 25.7069L62.8922 28.5955C62.8892 28.5501 62.8892 28.5045 62.8922 28.459C62.8922 28.4165 62.8922 28.374 62.8922 28.3346V25.6038H63.339V29.4512H63.0811C63.0429 29.4543 63.0046 29.447 62.9702 29.43C62.939 29.4109 62.9116 29.3862 62.8892 29.3571L60.7003 26.4716C60.7003 26.5171 60.7003 26.5595 60.7003 26.602C60.7003 26.6445 60.7003 26.684 60.7003 26.7204V29.4512H60.2715V25.6189H60.5384C60.5673 25.619 60.5959 25.6252 60.6223 25.6371Z" fill="#AFB1B8"/>
<path d="M67.1144 25.6189V26.0406H65.2973V27.3059H66.7695V27.7124H65.2973V29.0202H67.1144V29.4419H64.7695V25.6189H67.1144Z" fill="#AFB1B8"/>
<path d="M13.3822 1.95391L36.1506 8.49527V31.4173L13.3822 24.879V1.95391ZM11.9219 0V25.9925L37.6079 33.3743V7.38482L11.9219 0Z" fill="#AFB1B8"/>
<path d="M25.689 45.4402L0 38.0522V12.0625L25.689 19.4474V45.4402Z" fill="#AFB1B8"/>
<path d="M12.3482 1.65958L34.8197 8.11891L25.2632 17.7912L2.7887 11.3288L12.3482 1.65958ZM11.9224 0L0 12.0631L25.689 19.4478L37.6084 7.38469L11.9224 0Z" fill="#AFB1B8"/>
<path d="M27.1348 43.978L37.6088 33.3774L27.1348 30.3647V43.978Z" fill="#AFB1B8"/>
</svg>
