<svg width="42" height="50" viewBox="0 0 42 50" fill="none" xmlns="http://www.w3.org/2000/svg">
<path d="M5.71729 0L12.5545 6.91796H31.627V26.2158L38.4642 33.1338V0H5.71729Z" fill="#AFB1B8"/>
<path d="M0.103516 6.62646V38.8137H31.9147V26.0195L12.7561 6.63443L0.103516 6.62646ZM25.8548 34.1055H5.13725V12.4579H6.60171V32.6397H25.8548V34.1055Z" fill="#AFB1B8"/>
<path d="M9.3623 44.7837L10.1802 43.0991H10.8638L9.67236 45.3452V46.6538H9.05225V45.3452L7.8584 43.0991H8.54443L9.3623 44.7837ZM12.873 45.8262H11.4961L11.208 46.6538H10.5659L11.9087 43.0991H12.4629L13.8081 46.6538H13.1636L12.873 45.8262ZM11.6694 45.3281H12.6997L12.1846 43.8535L11.6694 45.3281ZM15.3071 45.6943C15.3071 45.5299 15.3519 45.3794 15.4414 45.2427C15.5309 45.1043 15.7075 44.9408 15.9712 44.752C15.8328 44.5778 15.736 44.4297 15.6807 44.3076C15.627 44.1855 15.6001 44.0675 15.6001 43.9536C15.6001 43.6753 15.6847 43.4556 15.854 43.2944C16.0233 43.1317 16.2511 43.0503 16.5376 43.0503C16.7964 43.0503 17.008 43.1268 17.1724 43.2798C17.3384 43.4312 17.4214 43.6191 17.4214 43.8438C17.4214 43.9919 17.384 44.1286 17.3091 44.2539C17.2342 44.3776 17.1113 44.5013 16.9404 44.625L16.6987 44.8008L17.3848 45.6113C17.484 45.416 17.5337 45.1987 17.5337 44.9595H18.0488C18.0488 45.3973 17.9463 45.7562 17.7412 46.0361L18.2637 46.6538H17.5752L17.375 46.417C17.1211 46.6074 16.8184 46.7026 16.4668 46.7026C16.1152 46.7026 15.8337 46.6099 15.6221 46.4243C15.4121 46.2371 15.3071 45.9938 15.3071 45.6943ZM16.4839 46.229C16.6841 46.229 16.8713 46.1623 17.0454 46.0288L16.269 45.1133L16.1934 45.167C15.998 45.3151 15.9004 45.4844 15.9004 45.6748C15.9004 45.8392 15.9533 45.9727 16.0591 46.0752C16.1649 46.1777 16.3065 46.229 16.4839 46.229ZM16.1567 43.939C16.1567 44.0757 16.2406 44.2474 16.4082 44.4541L16.6792 44.2686L16.7549 44.2075C16.8558 44.118 16.9062 44.0033 16.9062 43.8633C16.9062 43.7705 16.8713 43.6916 16.8013 43.6265C16.7313 43.5597 16.6426 43.5264 16.5352 43.5264C16.4196 43.5264 16.3276 43.5654 16.2593 43.6436C16.1909 43.7217 16.1567 43.8201 16.1567 43.939ZM22.6143 45.4966C22.5785 45.8758 22.4385 46.172 22.1943 46.3853C21.9502 46.5968 21.6255 46.7026 21.2202 46.7026C20.937 46.7026 20.6872 46.6359 20.4707 46.5024C20.2559 46.3674 20.0898 46.1761 19.9727 45.9287C19.8555 45.6813 19.7944 45.394 19.7896 45.0669V44.7349C19.7896 44.3996 19.849 44.1042 19.9678 43.8486C20.0866 43.5931 20.2567 43.3962 20.478 43.2578C20.701 43.1195 20.9582 43.0503 21.2495 43.0503C21.6418 43.0503 21.9575 43.1569 22.1968 43.3701C22.436 43.5833 22.5752 43.8844 22.6143 44.2734H21.999C21.9697 44.0179 21.8949 43.834 21.7744 43.7217C21.6556 43.6077 21.4806 43.5508 21.2495 43.5508C20.981 43.5508 20.7743 43.6493 20.6294 43.8462C20.4862 44.0415 20.4129 44.3288 20.4097 44.708V45.0229C20.4097 45.4071 20.478 45.7 20.6147 45.9019C20.7531 46.1037 20.9549 46.2046 21.2202 46.2046C21.4627 46.2046 21.645 46.1501 21.7671 46.041C21.8892 45.932 21.9665 45.7505 21.999 45.4966H22.6143ZM26.0054 44.9692C26.0054 45.3175 25.9451 45.6235 25.8247 45.8872C25.7043 46.1493 25.5317 46.3511 25.3071 46.4927C25.0841 46.6326 24.827 46.7026 24.5356 46.7026C24.2476 46.7026 23.9904 46.6326 23.7642 46.4927C23.5396 46.3511 23.3654 46.1501 23.2417 45.8896C23.1196 45.6292 23.0578 45.3289 23.0562 44.9888V44.7886C23.0562 44.4419 23.1172 44.1359 23.2393 43.8706C23.363 43.6053 23.5363 43.4027 23.7593 43.2627C23.9839 43.1211 24.241 43.0503 24.5308 43.0503C24.8205 43.0503 25.0768 43.1203 25.2998 43.2603C25.5244 43.3986 25.6978 43.5988 25.8198 43.8608C25.9419 44.1213 26.0037 44.4248 26.0054 44.7715V44.9692ZM25.3877 44.7837C25.3877 44.3898 25.3128 44.0879 25.1631 43.8779C25.015 43.668 24.8042 43.563 24.5308 43.563C24.2638 43.563 24.0547 43.668 23.9033 43.8779C23.7536 44.0863 23.6771 44.3817 23.6738 44.7642V44.9692C23.6738 45.3599 23.7495 45.6618 23.9009 45.875C24.0539 46.0882 24.2655 46.1948 24.5356 46.1948C24.8091 46.1948 25.019 46.0907 25.1655 45.8823C25.3136 45.674 25.3877 45.3696 25.3877 44.9692V44.7837Z" fill="#AFB1B8"/>
</svg>
