<svg aria-hidden="true" style="position: absolute; width: 0; height: 0; overflow: hidden;" version="1.1" xmlns="http://www.w3.org/2000/svg" xmlns:xlink="http://www.w3.org/1999/xlink">
<defs>
<symbol id="icon-infodevstudiocom" viewBox="0 0 286 32">
<path  d="M5.585 23.467h-3.543v-15.778h3.543v15.778zM1.822 3.59c0-0.546 0.171-0.998 0.512-1.357 0.35-0.361 0.845-0.54 1.487-0.54 0.64 0 1.137 0.179 1.487 0.54 0.35 0.358 0.525 0.811 0.525 1.357 0 0.533-0.175 0.981-0.525 1.342-0.35 0.35-0.845 0.525-1.487 0.525-0.64 0-1.137-0.175-1.487-0.525-0.318-0.336-0.513-0.79-0.513-1.289 0-0.019 0-0.038 0.001-0.057l-0 0.003zM13.342 7.686l0.102 1.824c1.167-1.408 2.699-2.114 4.595-2.114 3.285 0 4.958 1.882 5.015 5.643v10.428h-3.541v-10.223c0-1.003-0.22-1.741-0.657-2.219-0.427-0.484-1.133-0.725-2.116-0.725-1.429 0-2.494 0.644-3.194 1.937v11.23h-3.541v-15.778h3.339zM28.527 23.467v-13.154h-2.406v-2.624h2.404v-1.444c0-1.749 0.486-3.102 1.459-4.053 0.973-0.954 2.334-1.429 4.083-1.429 0.623 0 1.284 0.085 1.984 0.26l-0.087 2.773c-0.384-0.075-0.825-0.118-1.277-0.118-0.028 0-0.056 0-0.084 0.001l0.004-0c-1.692 0-2.539 0.87-2.539 2.609v1.402h3.211v2.624h-3.209v13.154h-3.548zM37.801 15.43c0-1.545 0.305-2.935 0.917-4.171 0.614-1.244 1.474-2.197 2.581-2.859 1.109-0.67 2.383-1.005 3.823-1.005 2.129 0 3.853 0.685 5.175 2.057 1.333 1.37 2.052 3.187 2.159 5.453l0.015 0.832c0 1.557-0.301 2.944-0.905 4.171-0.569 1.196-1.45 2.165-2.537 2.827l-0.029 0.016c-1.109 0.672-2.391 1.007-3.851 1.007-2.225 0-4.011-0.74-5.353-2.219-1.331-1.487-1.997-3.465-1.997-5.935v-0.175zM41.344 15.738c0 1.623 0.335 2.897 1.007 3.821 0.67 0.913 1.604 1.372 2.799 1.372s2.125-0.469 2.786-1.402c0.67-0.932 1.007-2.3 1.007-4.096 0-1.596-0.346-2.859-1.037-3.793-0.681-0.932-1.609-1.399-2.784-1.399-1.158 0-2.076 0.461-2.756 1.387-0.683 0.913-1.022 2.283-1.022 4.111zM79.639 15.913c-0.117 2.432-0.715 4.352-1.792 5.76-1.082 1.399-2.545 2.101-4.393 2.101-1.758 0-2.935-0.749-3.529-2.246-0.444 0.687-1.026 1.246-1.711 1.651l-0.024 0.013c-0.653 0.367-1.338 0.553-2.057 0.553-1.421 0-2.498-0.585-3.238-1.749-0.727-1.167-1.005-2.729-0.832-4.683 0.14-1.582 0.551-3.037 1.185-4.364l-0.033 0.076c0.623-1.274 1.408-2.255 2.349-2.944 0.954-0.702 1.963-1.052 3.034-1.052 0.817 0 1.536 0.102 2.159 0.307 0.631 0.205 1.37 0.627 2.217 1.269l-0.759 8.209c-0.183 1.926 0.371 2.889 1.664 2.889 0.992 0 1.803-0.531 2.434-1.589 0.642-1.071 0.992-2.451 1.052-4.143 0.164-3.586-0.531-6.334-2.086-8.239-1.547-1.905-3.874-2.859-6.985-2.859-1.907 0-3.599 0.476-5.077 1.429-1.468 0.954-2.633 2.334-3.499 4.143-0.864 1.798-1.342 3.849-1.429 6.153-0.117 2.345 0.16 4.365 0.832 6.067 0.681 1.692 1.715 2.98 3.106 3.863 1.399 0.885 3.106 1.329 5.12 1.329 0.815 0 1.664-0.098 2.551-0.292 0.894-0.194 1.651-0.457 2.274-0.789l0.555 1.999c-0.593 0.39-1.395 0.7-2.406 0.934-0.909 0.23-1.953 0.363-3.028 0.363-0.002 0-0.004 0-0.006 0h0c-2.47 0-4.589-0.523-6.357-1.574-1.771-1.039-3.098-2.551-3.983-4.535-0.913-2.050-1.316-4.506-1.21-7.364 0.115-2.662 0.715-5.056 1.792-7.174 1.079-2.129 2.554-3.782 4.42-4.958 1.877-1.178 4.011-1.764 6.4-1.764 2.423 0 4.503 0.533 6.244 1.604 1.749 1.058 3.057 2.59 3.923 4.593 0.864 1.993 1.237 4.331 1.122 7.014zM64.926 17.312c-0.128 1.323-0.011 2.33 0.35 3.019 0.358 0.683 0.932 1.022 1.719 1.022 0.525 0 1.022-0.228 1.487-0.687 0.469-0.465 0.847-1.103 1.139-1.909l0.655-7.189c-0.419-0.17-0.904-0.271-1.412-0.277l-0.002-0c-1.079 0-1.958 0.512-2.639 1.532-0.683 1.011-1.114 2.509-1.297 4.491zM82.718 15.46c0-2.432 0.561-4.38 1.69-5.847 1.129-1.478 2.639-2.219 4.535-2.219 1.673 0 3.023 0.585 4.053 1.751v-8.079h3.543v22.4h-3.206l-0.175-1.634c-1.060 1.284-2.475 1.926-4.245 1.926-1.845 0-3.343-0.745-4.491-2.231-1.137-1.487-1.707-3.509-1.707-6.067zM86.259 15.767c0 1.604 0.307 2.859 0.917 3.761 0.625 0.896 1.504 1.344 2.641 1.344 1.451 0 2.509-0.649 3.179-1.941v-6.737c-0.651-1.265-1.7-1.897-3.149-1.897-1.148 0-2.033 0.457-2.654 1.372-0.623 0.905-0.934 2.27-0.934 4.096zM107.785 23.759c-2.246 0-4.070-0.704-5.47-2.116-1.389-1.419-2.084-3.305-2.084-5.658v-0.437c0-1.574 0.301-2.98 0.905-4.215 0.581-1.206 1.458-2.191 2.539-2.885l0.028-0.017c1.020-0.649 2.264-1.035 3.597-1.035 0.027 0 0.054 0 0.081 0l-0.004-0c2.15 0 3.806 0.685 4.973 2.057 1.178 1.37 1.766 3.309 1.766 5.818v1.429h-10.31c0.107 1.301 0.54 2.334 1.297 3.093 0.768 0.757 1.73 1.137 2.886 1.137 1.623 0 2.946-0.657 3.968-1.969l1.909 1.822c-0.639 0.942-1.496 1.691-2.501 2.185l-0.038 0.017c-1.001 0.489-2.178 0.775-3.421 0.775-0.042 0-0.084-0-0.126-0.001l0.006 0zM107.358 10.24c-0.971 0-1.758 0.341-2.362 1.020-0.593 0.683-0.973 1.63-1.137 2.844h6.752v-0.262c-0.077-1.186-0.395-2.080-0.947-2.684-0.555-0.612-1.323-0.917-2.304-0.917zM122.831 18.976l3.341-11.287h3.659l-5.468 15.778h-3.076l-5.513-15.778h3.674l3.383 11.285zM141.498 19.179c0.001-0.019 0.001-0.041 0.001-0.063 0-0.586-0.314-1.098-0.783-1.377l-0.007-0.004c-0.512-0.329-1.374-0.621-2.581-0.875-1.203-0.252-2.21-0.574-3.017-0.96-1.771-0.858-2.654-2.097-2.654-3.721 0-1.361 0.574-2.498 1.719-3.413 1.148-0.913 2.607-1.37 4.375-1.37 1.886 0 3.407 0.467 4.565 1.399 1.167 0.934 1.749 2.144 1.749 3.631h-3.543c0-0.681-0.254-1.244-0.759-1.692-0.506-0.457-1.175-0.685-2.012-0.685-0.777 0-1.414 0.179-1.909 0.54-0.444 0.313-0.73 0.823-0.73 1.4 0 0.016 0 0.031 0.001 0.047l-0-0.002c0 0.544 0.228 0.966 0.685 1.267 0.457 0.303 1.38 0.608 2.771 0.919 1.391 0.301 2.479 0.666 3.266 1.094 0.798 0.418 1.387 0.924 1.764 1.515 0.39 0.595 0.585 1.314 0.585 2.159 0 1.421-0.589 2.573-1.764 3.456-1.178 0.875-2.718 1.314-4.623 1.314-1.295 0-2.447-0.235-3.456-0.7-1.011-0.469-1.801-1.109-2.364-1.926-0.527-0.733-0.844-1.649-0.845-2.639v-0h3.441c0.049 0.836 0.363 1.483 0.947 1.941 0.585 0.446 1.357 0.67 2.319 0.67 0.934 0 1.643-0.175 2.129-0.527 0.443-0.304 0.73-0.808 0.73-1.378 0-0.008-0-0.015-0-0.023v0.001zM153.12 3.853v3.836h2.784v2.624h-2.784v8.809c0 0.602 0.117 1.041 0.35 1.312 0.243 0.262 0.67 0.395 1.284 0.395 0.405 0 0.821-0.049 1.237-0.147v2.741c-0.697 0.207-1.499 0.33-2.328 0.337l-0.004 0c-2.722 0-4.083-1.502-4.083-4.508v-8.939h-2.596v-2.624h2.596v-3.836h3.541zM168.781 21.922c-1.039 1.225-2.517 1.835-4.433 1.835-1.711 0-3.008-0.499-3.893-1.5-0.875-1.003-1.312-2.451-1.312-4.346v-10.223h3.543v10.178c0 2.003 0.832 3.004 2.494 3.004 1.722 0 2.882-0.619 3.486-1.852v-11.33h3.541v15.778h-3.339l-0.085-1.547zM175.753 15.46c0-2.432 0.563-4.38 1.692-5.847 1.126-1.478 2.639-2.219 4.535-2.219 1.673 0 3.023 0.585 4.053 1.751v-8.079h3.543v22.4h-3.209l-0.175-1.634c-1.060 1.284-2.475 1.926-4.243 1.926-1.847 0-3.345-0.745-4.493-2.231-1.137-1.487-1.707-3.509-1.707-6.067zM179.294 15.767c0 1.604 0.307 2.859 0.919 3.761 0.623 0.896 1.504 1.344 2.641 1.344 1.449 0 2.509-0.649 3.179-1.941v-6.737c-0.651-1.265-1.7-1.897-3.151-1.897-1.146 0-2.031 0.457-2.654 1.372-0.621 0.905-0.932 2.27-0.932 4.096zM197.641 23.467h-3.543v-15.778h3.543v15.778zM193.877 3.59c0-0.546 0.171-0.998 0.512-1.357 0.35-0.361 0.845-0.54 1.487-0.54 0.64 0 1.137 0.179 1.487 0.54 0.35 0.358 0.525 0.811 0.525 1.357 0 0.533-0.175 0.981-0.525 1.342-0.35 0.35-0.845 0.525-1.487 0.525-0.64 0-1.137-0.175-1.487-0.525-0.318-0.336-0.513-0.79-0.513-1.289 0-0.019 0-0.038 0.001-0.057l-0 0.003zM201.446 15.43c0-1.545 0.307-2.935 0.917-4.171 0.575-1.2 1.46-2.174 2.552-2.842l0.029-0.017c1.109-0.67 2.383-1.005 3.823-1.005 2.129 0 3.855 0.685 5.175 2.057 1.333 1.37 2.052 3.187 2.159 5.453l0.015 0.832c0 1.557-0.301 2.944-0.905 4.171-0.569 1.196-1.45 2.165-2.537 2.827l-0.029 0.016c-1.109 0.672-2.391 1.007-3.851 1.007-2.225 0-4.011-0.74-5.35-2.219-1.333-1.487-1.999-3.465-1.999-5.935v-0.175zM204.99 15.738c0 1.623 0.335 2.897 1.007 3.821 0.67 0.913 1.604 1.372 2.799 1.372s2.125-0.469 2.786-1.402c0.67-0.932 1.007-2.3 1.007-4.096 0-1.596-0.346-2.859-1.037-3.793-0.681-0.932-1.609-1.399-2.784-1.399-1.158 0-2.076 0.461-2.756 1.387-0.683 0.913-1.022 2.283-1.022 4.111zM221.92 19.733c0.661 0 1.173 0.19 1.532 0.57 0.335 0.345 0.541 0.816 0.541 1.336 0 0.022-0 0.045-0.001 0.067l0-0.003c0 0.555-0.179 1.015-0.54 1.387-0.358 0.358-0.87 0.538-1.532 0.538-0.631 0-1.131-0.179-1.502-0.54-0.342-0.336-0.554-0.803-0.554-1.32 0-0.024 0-0.047 0.001-0.070l-0 0.003c-0.001-0.018-0.001-0.040-0.001-0.062 0-0.519 0.206-0.991 0.541-1.336l-0 0c0.358-0.38 0.864-0.57 1.515-0.57zM235.134 20.928c0.883 0 1.617-0.256 2.202-0.772 0.582-0.514 0.894-1.152 0.932-1.909h3.341c-0.041 0.981-0.346 1.899-0.919 2.756-0.593 0.857-1.38 1.54-2.299 1.996l-0.035 0.016c-0.981 0.495-2.042 0.745-3.179 0.745-2.206 0-3.957-0.715-5.25-2.144s-1.939-3.403-1.939-5.922v-0.363c0-2.402 0.642-4.322 1.924-5.76 1.284-1.451 3.034-2.176 5.25-2.176 1.877 0 3.403 0.55 4.58 1.649 1.186 1.088 1.807 2.524 1.867 4.303h-3.341c-0.038-0.905-0.35-1.649-0.932-2.231-0.574-0.582-1.308-0.875-2.202-0.875-1.148 0-2.033 0.418-2.656 1.254-0.621 0.826-0.937 2.084-0.947 3.776v0.57c0 1.711 0.307 2.989 0.919 3.836 0.621 0.836 1.517 1.254 2.684 1.254zM244.218 15.43c0-1.545 0.307-2.935 0.919-4.171 0.612-1.244 1.472-2.197 2.581-2.859 1.107-0.67 2.381-1.005 3.821-1.005 2.129 0 3.855 0.685 5.175 2.057 1.333 1.37 2.052 3.187 2.159 5.453l0.015 0.832c0 1.557-0.301 2.944-0.905 4.171-0.569 1.196-1.45 2.165-2.537 2.827l-0.029 0.016c-1.107 0.672-2.391 1.007-3.851 1.007-2.225 0-4.009-0.74-5.35-2.219-1.333-1.487-1.999-3.465-1.999-5.935v-0.175zM247.761 15.738c0 1.623 0.335 2.897 1.007 3.821 0.67 0.913 1.604 1.372 2.799 1.372 1.197 0 2.125-0.469 2.786-1.402 0.672-0.932 1.007-2.3 1.007-4.096 0-1.596-0.346-2.859-1.037-3.793-0.681-0.932-1.609-1.399-2.784-1.399-1.158 0-2.076 0.461-2.756 1.387-0.681 0.913-1.022 2.283-1.022 4.111zM265.815 7.689l0.102 1.647c1.107-1.293 2.624-1.941 4.548-1.941 2.11 0 3.554 0.809 4.333 2.423 1.148-1.615 2.761-2.421 4.841-2.421 1.741 0 3.034 0.48 3.881 1.444 0.855 0.96 1.293 2.381 1.312 4.258v10.368h-3.543v-10.268c0-1.001-0.22-1.734-0.657-2.202-0.437-0.465-1.161-0.7-2.172-0.7-0.809 0-1.47 0.22-1.984 0.657-0.506 0.427-0.86 0.992-1.065 1.692l0.015 10.82h-3.543v-10.383c-0.049-1.856-0.998-2.786-2.844-2.786-1.421 0-2.426 0.578-3.019 1.737v11.433h-3.546v-15.778h3.341z"></path>
</symbol>
<symbol id="icon-380961111111" viewBox="0 0 320 32">
<path  d="M12.507 14.731h6.925v4.048h-6.925v7.893h-4.304v-7.893h-6.963v-4.048h6.963v-7.381h4.304v7.381zM28.675 14.037h2.696c1.36-0.011 2.437-0.363 3.227-1.056 0.803-0.693 1.203-1.696 1.203-3.008 0-1.264-0.333-2.24-1.003-2.933-0.656-0.707-1.664-1.059-3.024-1.059-1.192 0-2.171 0.347-2.933 1.040-0.768 0.68-1.149 1.573-1.149 2.68h-4.435c0-1.36 0.36-2.603 1.077-3.72 0.728-1.12 1.736-1.987 3.027-2.605 1.234-0.6 2.685-0.95 4.218-0.95 0.048 0 0.096 0 0.144 0.001l-0.007-0c2.651 0 4.728 0.667 6.235 2.005 1.52 1.325 2.28 3.173 2.28 5.541 0 1.192-0.384 2.315-1.149 3.373-0.755 1.045-1.733 1.835-2.933 2.371 1.456 0.496 2.563 1.28 3.317 2.349 0.765 1.069 1.147 2.347 1.147 3.829 0 2.381-0.819 4.277-2.461 5.688-1.627 1.408-3.773 2.115-6.435 2.115-2.552 0-4.64-0.68-6.269-2.043-1.629-1.36-2.443-3.173-2.443-5.432h4.427c0 1.165 0.392 2.115 1.168 2.843 0.789 0.731 1.848 1.093 3.173 1.093 1.373 0 2.453-0.363 3.245-1.093 0.789-0.728 1.184-1.787 1.184-3.173 0-1.395-0.413-2.469-1.24-3.224s-2.053-1.131-3.68-1.131h-2.608v-3.499zM62.232 9.792c0 1.301-0.333 2.461-1.003 3.483-0.667 1.008-1.579 1.803-2.733 2.387 1.387 0.645 2.448 1.525 3.189 2.643 0.755 1.12 1.131 2.381 1.131 3.792 0 2.333-0.789 4.187-2.371 5.56-1.579 1.36-3.68 2.043-6.307 2.043-2.637 0-4.752-0.688-6.344-2.061-1.579-1.373-2.368-3.219-2.368-5.541 0-1.421 0.373-2.699 1.128-3.827 0.755-1.131 1.813-2 3.173-2.608-1.115-0.56-2.032-1.371-2.702-2.362l-0.016-0.025c-0.618-0.957-0.985-2.127-0.985-3.382 0-0.036 0-0.071 0.001-0.106l-0 0.005c0-2.261 0.731-4.053 2.187-5.379 1.459-1.323 3.429-1.987 5.907-1.987 2.493 0 4.467 0.664 5.925 1.987 1.459 1.325 2.187 3.12 2.187 5.379zM58.387 21.877c0-1.312-0.395-2.371-1.184-3.173-0.779-0.813-1.813-1.219-3.101-1.219s-2.32 0.4-3.099 1.2c-0.765 0.805-1.147 1.867-1.147 3.192 0 1.301 0.376 2.339 1.131 3.117 0.765 0.779 1.813 1.168 3.152 1.168s2.376-0.379 3.12-1.131c0.752-0.755 1.128-1.805 1.128-3.155zM57.821 9.957c0-1.157-0.333-2.104-1.003-2.845-0.667-0.755-1.568-1.131-2.699-1.131s-2.021 0.36-2.68 1.075c-0.656 0.707-0.984 1.672-0.984 2.899 0 1.216 0.328 2.181 0.987 2.899 0.667 0.72 1.565 1.077 2.696 1.077s2.024-0.36 2.68-1.077c0.667-0.717 1.003-1.68 1.003-2.899zM94.827 18.16c0 3.813-0.72 6.693-2.152 8.64-1.421 1.931-3.592 2.899-6.507 2.899-2.869 0-5.032-0.944-6.491-2.827-1.448-1.893-2.187-4.696-2.224-8.403v-4.595c0-3.813 0.709-6.677 2.133-8.587 1.432-1.907 3.613-2.861 6.544-2.861 2.904 0 5.067 0.931 6.488 2.789 1.435 1.859 2.171 4.64 2.208 8.347v4.597zM90.395 13.2c0-2.491-0.339-4.315-1.021-5.467-0.68-1.168-1.76-1.752-3.243-1.752-1.448 0-2.509 0.555-3.192 1.659-0.68 1.093-1.040 2.808-1.075 5.141v6.016c0 2.48 0.347 4.325 1.040 5.541s1.779 1.824 3.261 1.824c1.424 0 2.475-0.56 3.155-1.68 0.68-1.128 1.040-2.891 1.075-5.285v-5.997zM112.051 18.232c-1.483 1.568-3.213 2.352-5.195 2.352-2.333 0-4.192-0.816-5.579-2.443-1.387-1.64-2.080-3.792-2.080-6.453 0-1.749 0.355-3.336 1.059-4.757 0.707-1.424 1.707-2.528 3.008-3.32 1.301-0.789 2.808-1.184 4.523-1.184 2.672 0 4.792 0.997 6.36 2.989 1.568 1.995 2.352 4.661 2.352 8.003v1.24c0 4.789-1.080 8.44-3.245 10.955-2.16 2.517-5.387 3.792-9.68 3.829h-0.528v-3.664h0.64c2.613-0.037 4.616-0.661 6.013-1.877 1.397-1.227 2.181-3.117 2.352-5.669zM107.784 17.12c0.888 0 1.72-0.256 2.499-0.765 0.779-0.512 1.379-1.216 1.805-2.115v-1.733c0-1.955-0.4-3.528-1.203-4.72s-1.84-1.787-3.12-1.787c-1.275 0-2.293 0.528-3.061 1.587-0.752 1.045-1.131 2.368-1.131 3.973 0 1.664 0.384 3.008 1.149 4.027 0.765 1.024 1.787 1.533 3.061 1.533zM135.24 2.664v3.664h-0.547c-2.48 0.037-4.459 0.717-5.941 2.043-1.483 1.323-2.365 3.2-2.645 5.632 1.424-1.493 3.24-2.24 5.451-2.24 2.347 0 4.195 0.827 5.541 2.477 1.36 1.653 2.043 3.787 2.043 6.4 0 2.696-0.795 4.883-2.387 6.56-1.581 1.667-3.659 2.499-6.235 2.499-2.651 0-4.8-0.979-6.453-2.933-1.643-1.96-2.461-4.523-2.461-7.696v-1.512c0-4.653 1.131-8.301 3.389-10.939 2.272-2.637 5.533-3.952 9.787-3.952h0.456zM130.48 15.333c-2.002 0.006-3.716 1.233-4.436 2.976l-0.012 0.032v1.349c0 1.968 0.413 3.536 1.24 4.701 0.827 1.155 1.893 1.733 3.208 1.733 1.312 0 2.352-0.493 3.117-1.477s1.147-2.277 1.147-3.883c0-1.603-0.387-2.909-1.165-3.92-0.685-0.922-1.771-1.513-2.995-1.513-0.036 0-0.073 0.001-0.109 0.002l0.005-0zM165.461 29.333h-4.413v-21.309l-6.507 2.224v-3.741l10.355-3.808h0.565v26.635zM187.427 29.333h-4.413v-21.309l-6.507 2.224v-3.741l10.355-3.808h0.565v26.635zM209.392 29.333h-4.413v-21.309l-6.507 2.224v-3.741l10.355-3.808h0.565v26.635zM241.4 29.333h-4.411v-21.309l-6.507 2.224v-3.741l10.352-3.808h0.565v26.635zM263.365 29.333h-4.411v-21.309l-6.507 2.224v-3.741l10.352-3.808h0.565v26.635zM295.373 29.333h-4.411v-21.309l-6.507 2.224v-3.741l10.355-3.808h0.563v26.635zM317.339 29.333h-4.411v-21.309l-6.507 2.224v-3.741l10.355-3.808h0.563v26.635z"></path>
</symbol>
</defs>
</svg>
