<svg aria-hidden="true" style="position: absolute; width: 0; height: 0; overflow: hidden;" version="1.1" xmlns="http://www.w3.org/2000/svg" xmlns:xlink="http://www.w3.org/1999/xlink">
<defs>
<symbol id="icon-antenna" viewBox="0 0 32 32">
<path fill="#212121" style="fill: var(--color1, #212121)" d="M30.773 22.098l-8.443-8.505 0.937-4.616c0.225 0.090 0.485 0.144 0.758 0.146h0.007c0.008 0 0.017 0 0.026 0 1.192 0 2.159-0.967 2.159-2.159s-0.967-2.159-2.159-2.159c-1.192 0-2.159 0.967-2.159 2.159 0 0.259 0.046 0.508 0.13 0.739l-0.005-0.015-4.96 0.606-8.091-8.133c-0.096-0.098-0.229-0.159-0.376-0.16h-0c-0.14 0.001-0.274 0.057-0.373 0.155l-1.512 1.504c-0.096 0.097-0.156 0.23-0.156 0.377s0.060 0.281 0.156 0.377v0l0.814 0.825c-1.143 2.062-1.816 4.522-1.816 7.139 0 4.106 1.656 7.824 4.336 10.525l-0.001-0.001c0.043 0.041 0.092 0.074 0.146 0.097-0.032 0.164-0.051 0.353-0.052 0.546v6.188h-6.4c-1.472 0.001-2.666 1.194-2.667 2.666v1.067c0 0.295 0.239 0.534 0.534 0.534h24.534c0.294 0 0.533-0.239 0.533-0.534v-1.067c-0.002-1.472-1.195-2.665-2.666-2.666h-6.4v-2.742c1.003 0.21 2.024 0.317 3.049 0.32 2.58-0.003 5.005-0.663 7.117-1.822l-0.077 0.039 0.818 0.823c0.099 0.101 0.235 0.159 0.376 0.16 0.14-0.001 0.274-0.057 0.373-0.155l1.512-1.504c0.096-0.097 0.156-0.23 0.156-0.377s-0.060-0.281-0.156-0.377v0zM23.28 6.233c0.193-0.192 0.459-0.31 0.752-0.31 0.589 0 1.067 0.478 1.067 1.066s-0.477 1.066-1.067 1.066c-0 0-0 0-0 0h-0.004c-0.587-0.003-1.061-0.479-1.061-1.066 0-0.295 0.12-0.563 0.314-0.756l0-0h-0.002zM22.024 9.737l-0.598 2.946-1.175-1.183 1.774-1.763zM21.419 8.835l-1.92 1.909-1.486-1.493 3.406-0.416zM24.004 28.8c0.884 0 1.6 0.716 1.6 1.6v0 0.534h-23.466v-0.534c0-0.884 0.716-1.6 1.6-1.6v0h20.267zM16.538 26.666v1.067h-5.334v-1.067h5.334zM11.204 25.6v-4.053c0-1.294 1.196-2.346 2.667-2.346s2.667 1.053 2.667 2.346v4.053h-5.334zM17.604 23.904v-2.357c0-1.882-1.675-3.413-3.733-3.413-0.017-0-0.038-0-0.058-0-1.353 0-2.54 0.707-3.213 1.771l-0.009 0.016c-2.36-2.482-3.812-5.846-3.812-9.55 0-2.314 0.567-4.496 1.569-6.414l-0.036 0.077 18.602 18.709c-1.823 0.947-3.979 1.502-6.266 1.502-1.079 0-2.128-0.124-3.136-0.357l0.093 0.018zM28.893 23.22l-21.057-21.181 0.754-0.752 7.935 7.98c0.004 0 0.006 0.007 0.010 0.010l13.114 13.191-0.757 0.752z"></path>
<path fill="#2196f3" style="fill: var(--color2, #2196f3)" d="M13.876 20.267h-0.005c-0.001 0-0.002 0-0.002 0-0.884 0-1.6 0.716-1.6 1.6s0.715 1.599 1.597 1.6h0.005c0.001 0 0.001 0 0.002 0 0.884 0 1.6-0.716 1.6-1.6s-0.715-1.599-1.598-1.6h-0zM14.249 22.245c-0.096 0.096-0.229 0.155-0.376 0.155-0.295 0-0.534-0.239-0.534-0.534s0.238-0.533 0.532-0.533h0c0.293 0.001 0.531 0.239 0.531 0.533 0 0.148-0.060 0.282-0.157 0.378l-0 0h0.005z"></path>
</symbol>
<symbol id="icon-astronaut" viewBox="0 0 32 32">
<path fill="#2196f3" style="fill: var(--color2, #2196f3)" d="M31.974 4.524c-0.064-0.191-0.227-0.332-0.427-0.362l-0.003-0-1.91-0.278-0.855-1.731c-0.179-0.365-0.777-0.365-0.956 0l-0.855 1.731-1.911 0.278c-0.26 0.039-0.457 0.26-0.457 0.528 0 0.15 0.062 0.285 0.161 0.382l1.383 1.348-0.326 1.903c-0.034 0.2 0.048 0.402 0.212 0.522 0.166 0.12 0.382 0.135 0.562 0.040l1.708-0.899 1.709 0.899c0.072 0.038 0.157 0.061 0.247 0.061 0.295 0 0.534-0.239 0.534-0.534 0-0.031-0.003-0.062-0.008-0.092l0 0.003-0.326-1.903 1.383-1.348c0.099-0.097 0.16-0.232 0.16-0.382 0-0.059-0.010-0.116-0.027-0.169l0.001 0.004zM29.511 5.851c-0.125 0.122-0.183 0.299-0.153 0.472l0.191 1.114-1.001-0.526c-0.072-0.039-0.158-0.061-0.248-0.061s-0.176 0.023-0.251 0.063l0.003-0.001-1.001 0.526 0.192-1.114c0.005-0.027 0.008-0.058 0.008-0.090 0-0.15-0.062-0.285-0.161-0.382l-0.811-0.79 1.119-0.162c0.174-0.025 0.324-0.134 0.402-0.292l0.5-1.013 0.501 1.013c0.078 0.158 0.228 0.267 0.402 0.292l1.119 0.162-0.809 0.79zM26.134 20.522h-1.067v1.067h1.067v-1.067zM26.134 22.656h-1.067v1.066h1.067v-1.066zM27.2 21.589h-1.067v1.067h1.067v-1.067z"></path>
<path fill="#2196f3" style="fill: var(--color2, #2196f3)" d="M25.067 21.589h-1.067v1.067h1.067v-1.067zM22.4 26.389h-1.067v1.067h1.067v-1.067zM22.4 28.523h-1.067v1.067h1.067v-1.067zM23.466 27.456h-1.067v1.067h1.067v-1.067zM21.334 27.456h-1.067v1.067h1.067v-1.067zM16 24.256h-1.067v1.067h1.067v-1.067zM16 26.389h-1.067v1.067h1.067v-1.067zM17.067 25.322h-1.067v1.067h1.067v-1.067zM14.933 25.322h-1.066v1.067h1.066v-1.067zM5.867 6.122h-1.067v1.066h1.067v-1.066zM5.867 8.256h-1.067v1.066h1.067v-1.066zM6.933 7.189h-1.067v1.067h1.066v-1.067zM4.8 7.189h-1.067v1.067h1.067v-1.067z"></path>
<path fill="#212121" style="fill: var(--color1, #212121)" d="M24.715 14.16c-0.28-0.376-0.698-0.636-1.179-0.703l-0.009-0.001c-0.076-0.012-0.164-0.018-0.254-0.018-0.411 0-0.789 0.139-1.090 0.373l0.004-0.003-1.253 0.96-1.898 1.417-1.358-0.541c2.421-1.086 4.113-3.508 4.113-6.32 0-3.823-3.122-6.934-6.961-6.934s-6.961 3.11-6.961 6.934c0 1.386 0.415 2.674 1.12 3.759l-2.768-0.024c-0.009 0-0.016 0.005-0.023 0.005-0.057 0.003-0.11 0.014-0.159 0.033l0.004-0.001c-0.013 0.005-0.026 0.007-0.038 0.013-0.006 0.003-0.013 0.003-0.019 0.006l-3.233 1.596c-0 0-0.001 0-0.001 0.001l-1.893 0.91c-0.024 0.011-0.045 0.023-0.065 0.036l0.001-0.001c-0.482 0.324-0.795 0.867-0.795 1.483 0 0.297 0.073 0.577 0.201 0.823l-0.005-0.010c0.22 0.424 0.592 0.742 1.043 0.885l0.013 0.003c0.161 0.053 0.345 0.083 0.537 0.083 0.308 0 0.598-0.078 0.851-0.216l-0.009 0.005 1.388-0.738 2.264-1.169 1.357-0.008-5.442 5.415c0 0.001-0.001 0.001-0.001 0.001l-1.339 1.333c-0.303 0.299-0.49 0.714-0.49 1.173 0 0.002 0 0.004 0 0.005v-0c0 0.444 0.174 0.863 0.49 1.178 0.301 0.3 0.717 0.485 1.176 0.485 0.001 0 0.002 0 0.004 0h-0c0.428 0 0.854-0.162 1.18-0.485l1.314-1.309 1.741-1.3 0.901 0.897-3.102 3.088c-0.303 0.299-0.491 0.714-0.491 1.173 0 0.001 0 0.003 0 0.004v-0c0 0.445 0.174 0.864 0.49 1.179 0.302 0.3 0.717 0.485 1.176 0.485 0.001 0 0.002 0 0.003 0h-0c0.427 0 0.855-0.162 1.18-0.485l4.488-4.472c0.007-0.006 0.016-0.009 0.022-0.016l5.166-5.658 3.471 0.494c0.025 0.004 0.050 0.006 0.075 0.006 0.065 0 0.127-0.016 0.187-0.038 0.018-0.006 0.033-0.015 0.050-0.023 0.019-0.010 0.039-0.015 0.058-0.027l3.213-2.133c0.012-0.008 0.018-0.021 0.029-0.030 0.013-0.010 0.029-0.014 0.041-0.026l1.271-1.191c0.348-0.326 0.564-0.787 0.564-1.3 0-0.4-0.132-0.769-0.355-1.066l0.003 0.005zM2.13 17.77c-0.098 0.054-0.215 0.086-0.34 0.086-0.078 0-0.153-0.013-0.224-0.036l0.005 0.001c-0.294-0.093-0.504-0.364-0.504-0.683 0-0.235 0.114-0.444 0.289-0.575l0.002-0.001 1.314-0.632 0.316 0.924 0.133 0.389-0.992 0.527zM5.627 15.942l-1.548 0.8-0.255-0.746-0.184-0.537 2.027-1.001-0.040 1.484zM20.727 9.322c0 0.918-0.219 1.785-0.599 2.56l-4.181-1.899c-0.044-0.575-0.342-1.072-0.782-1.384l-0.006-0.004 1.463-4.861c2.378 0.757 4.105 2.975 4.105 5.588zM8.938 9.322c0-3.235 2.644-5.867 5.894-5.867 0.253 0 0.5 0.022 0.745 0.053l-1.432 4.753c-0.019 0-0.037-0.006-0.057-0.006-0 0-0.001 0-0.001 0-1.032 0-1.869 0.835-1.872 1.867v0c0.003 1.031 0.84 1.867 1.872 1.867 0 0 0.001 0 0.001 0h-0c0.695 0 1.295-0.383 1.618-0.944l3.863 1.755c-1.075 1.447-2.795 2.39-4.737 2.39-3.25 0-5.894-2.632-5.894-5.867zM14.895 10.122c0 0.441-0.362 0.8-0.806 0.8-0 0-0.001 0-0.001 0-0.443 0-0.802-0.358-0.804-0.8v-0c0-0.441 0.361-0.8 0.806-0.8s0.806 0.359 0.806 0.8zM2.464 25.146c-0.11 0.109-0.261 0.176-0.428 0.176s-0.317-0.067-0.427-0.175l0 0c-0.109-0.108-0.176-0.257-0.176-0.422s0.067-0.314 0.176-0.422l0-0 0.962-0.959 0.852 0.848-0.959 0.954zM5.678 28.88c-0.11 0.109-0.261 0.176-0.428 0.176s-0.317-0.067-0.427-0.175l0 0c-0.109-0.108-0.176-0.257-0.176-0.422s0.067-0.314 0.176-0.422l0-0 0.963-0.959 0.852 0.848-0.96 0.955zM9.16 25.411l-0.001 0.001-1.765 1.76-0.852-0.848 1.765-1.757c0.040-0.040 0.065-0.088 0.090-0.136 0.007-0.014 0.020-0.026 0.026-0.040 0.016-0.041 0.019-0.085 0.026-0.128 0.003-0.025 0.014-0.048 0.014-0.073 0-0.035-0.013-0.070-0.020-0.105-0.006-0.032-0.006-0.064-0.019-0.096-0.025-0.053-0.055-0.098-0.092-0.138l0 0c-0.010-0.012-0.014-0.026-0.025-0.038h-0.001s0-0.001-0.001-0.002l-1.607-1.6c-0.017-0.017-0.039-0.024-0.058-0.038-0.025-0.021-0.054-0.040-0.084-0.056l-0.003-0.001c-0.027-0.012-0.058-0.023-0.090-0.031l-0.003-0.001c-0.030-0.009-0.065-0.017-0.101-0.020l-0.002-0c-0.007-0-0.015-0-0.023-0-0.026 0-0.051 0.002-0.075 0.005l0.003-0c-0.036 0.005-0.069 0.009-0.104 0.021s-0.064 0.027-0.095 0.045c-0.020 0.011-0.042 0.015-0.061 0.029l-1.773 1.324-0.901-0.897 2.399-2.386 4.361 4.289-0.928 0.919zM15.979 18.394c-0.015-0.002-0.030 0.004-0.045 0.003-0.008-0-0.017-0.001-0.027-0.001-0.031 0-0.062 0.003-0.092 0.008l0.003-0c-0.030 0.006-0.059 0.011-0.088 0.021-0.037 0.013-0.069 0.029-0.098 0.048l0.002-0.001c-0.031 0.019-0.059 0.039-0.084 0.062l0-0c-0.013 0.011-0.028 0.016-0.040 0.029l-4.698 5.146-4.328-4.256 2.833-2.818c0.096-0.097 0.156-0.23 0.156-0.377 0-0.295-0.239-0.534-0.534-0.534-0.001 0-0.001 0-0.002 0h0l-2.219 0.013 0.028-1.607 3.104 0.027c1.264 1.297 3.027 2.101 4.978 2.101 0.001 0 0.002 0 0.003 0h-0c0.438 0 0.864-0.046 1.28-0.122 0.040 0.032 0.080 0.064 0.129 0.085l2.41 0.96 0.152 0.758 0.178 0.886-3.003-0.427zM20.020 18.572l-0.313-1.558 1.446-1.080 0.946 1.257-2.080 1.381zM23.774 15.741l-0.838 0.785-0.931-1.236 0.831-0.637c0.155-0.119 0.351-0.168 0.543-0.143 0.193 0.027 0.364 0.128 0.48 0.284 0.088 0.117 0.141 0.265 0.141 0.426 0 0.206-0.087 0.391-0.226 0.521l-0 0z"></path>
<path fill="#212121" style="fill: var(--color1, #212121)" d="M13.602 18.544l-2.143-2.134c-0.096-0.096-0.229-0.156-0.376-0.156s-0.28 0.059-0.376 0.156v0l-2.143 2.134c-0.097 0.097-0.156 0.23-0.156 0.378s0.060 0.281 0.156 0.378l-0-0 2.143 2.134c0.096 0.096 0.229 0.156 0.376 0.156s0.28-0.059 0.376-0.156v0l2.143-2.134c0.097-0.097 0.157-0.23 0.157-0.378s-0.060-0.281-0.157-0.378l-0-0zM11.083 20.303l-1.387-1.381 1.386-1.381 1.387 1.381-1.387 1.381zM17.164 5.071l-0.258 1.036c0.071 0.018 1.738 0.452 1.738 2.149h1.067c0-2.017-1.666-2.965-2.547-3.184zM19.711 9.322h-1.067v1.066h1.067v-1.066z"></path>
</symbol>
<symbol id="icon-clock" viewBox="0 0 32 32">
<path fill="#212121" style="fill: var(--color1, #212121)" d="M31.296 15.301c-0.001-8.452-6.855-15.303-15.308-15.301s-15.303 6.855-15.301 15.308c0.002 6.788 4.422 12.543 10.541 14.545l0.108 0.031c0.061 0.019 0.123 0.029 0.187 0.029 0.12 0 0.238-0.032 0.342-0.094 0.135-0.080 0.236-0.207 0.283-0.357l3.865-12.25c1.054-0.004 1.906-0.859 1.906-1.913 0-1.056-0.856-1.913-1.913-1.913-0.303 0-0.59 0.071-0.845 0.196l0.011-0.005-5.106-5.107c-0.114-0.11-0.271-0.179-0.443-0.179-0.352 0-0.638 0.286-0.638 0.638 0 0.172 0.068 0.328 0.179 0.443l-0-0 5.103 5.109c-0.121 0.241-0.191 0.525-0.191 0.826 0 0.602 0.283 1.137 0.723 1.48l0.004 0.003-3.682 11.673c-7.278-2.681-11.004-10.754-8.324-18.032s10.754-11.004 18.032-8.323c7.278 2.681 11.004 10.754 8.323 18.032-1.345 3.581-4.003 6.406-7.374 7.938l-0.088 0.036-0.398-1.874c-0.063-0.291-0.318-0.506-0.624-0.506-0.164 0-0.313 0.062-0.426 0.163l0.001-0.001-3.837 3.426c-0.132 0.117-0.214 0.287-0.214 0.477 0 0.283 0.185 0.524 0.441 0.606l0.005 0.001 4.899 1.563c0.058 0.020 0.126 0.031 0.196 0.031 0.352 0 0.637-0.285 0.637-0.637 0-0.047-0.005-0.093-0.015-0.138l0.001 0.004-0.391-1.839c5.528-2.374 9.329-7.772 9.329-14.057 0-0.011 0-0.023-0-0.034v0.002zM15.992 14.664c0.352 0 0.638 0.286 0.638 0.638s-0.285 0.638-0.638 0.638v0c-0.352 0-0.638-0.286-0.638-0.638s0.286-0.638 0.638-0.638v0zM18.092 29.528l2.184-1.948 0.603 2.84-2.787-0.892z"></path>
<path fill="#2196f3" style="fill: var(--color2, #2196f3)" d="M15.354 3.185v1.275c0 0.352 0.286 0.638 0.638 0.638s0.638-0.285 0.638-0.638v0-1.275c0-0.352-0.285-0.638-0.638-0.638s-0.638 0.285-0.638 0.638v0zM3.876 14.664c-0.352 0-0.638 0.286-0.638 0.638s0.285 0.638 0.638 0.638h1.275c0.352 0 0.638-0.286 0.638-0.638s-0.285-0.638-0.638-0.638h-1.275zM28.108 15.939c0.352 0 0.638-0.286 0.638-0.638s-0.285-0.638-0.638-0.638h-1.275c-0.352 0-0.638 0.286-0.638 0.638s0.285 0.638 0.638 0.638h1.275z"></path>
</symbol>
<symbol id="icon-diagram" viewBox="0 0 32 32">
<path fill="#2196f3" style="fill: var(--color2, #2196f3)" d="M14.926 14.965h1.066v4.798h-1.066v-4.798zM19.19 17.097h1.066v2.665h-1.066v-2.665zM10.661 18.696h1.066v1.066h-1.066v-1.066zM7.463 18.163h1.066v1.599h-1.066v-1.599z"></path>
<path fill="#212121" style="fill: var(--color1, #212121)" d="M1.599 28.291h25.586c0 0 0 0 0 0 0.883 0 1.599-0.716 1.599-1.599v0-2.132c0-0.883-0.716-1.599-1.599-1.599v0h-0.533v-13.294l3.028-2.868c0.207 0.104 0.452 0.166 0.711 0.166 0.888 0 1.608-0.72 1.608-1.608s-0.72-1.608-1.608-1.608c-0.888 0-1.608 0.72-1.608 1.608 0 0.247 0.056 0.481 0.155 0.69l-0.004-0.010-2.281 2.162v-1.23c0-0.883-0.716-1.599-1.599-1.599v0h-21.323c-0.883 0-1.599 0.716-1.599 1.599v0 15.992h-0.533c-0.883 0-1.599 0.716-1.599 1.599v0 2.132c0 0.883 0.716 1.599 1.599 1.599v0zM30.384 4.837c0.294 0 0.533 0.239 0.533 0.533s-0.239 0.533-0.533 0.533v0c-0.294 0-0.533-0.239-0.533-0.533s0.239-0.533 0.533-0.533v0zM3.198 6.969c0-0.294 0.239-0.533 0.533-0.533h21.323c0.294 0 0.533 0.239 0.533 0.533v2.239l-1.066 1.013v-2.185c0-0.295-0.239-0.534-0.534-0.534h-19.189c-0.294 0-0.534 0.239-0.534 0.533v13.327c0 0.294 0.239 0.533 0.534 0.533h19.189c0.295 0 0.534-0.239 0.534-0.533v-9.675l1.066-1.010v12.283h-22.389v-15.991zM7.996 13.899c-0.001 0-0.003 0-0.005 0-0.883 0-1.599 0.716-1.599 1.599s0.716 1.599 1.599 1.599c0.432 0 0.824-0.172 1.112-0.45l-0 0 1.853 0.93c0.215 0.107 0.476 0.057 0.636-0.122l3.939-4.432 3.872 2.902c0.208 0.155 0.498 0.139 0.686-0.039l3.365-3.188v8.131h-18.123v-12.261h18.123v2.661l-3.771 3.572-3.904-2.927c-0.088-0.067-0.2-0.107-0.32-0.107-0.158 0-0.3 0.069-0.398 0.178l-0 0.001-3.993 4.493-1.493-0.746c0.011-0.064 0.017-0.128 0.020-0.193 0-0.883-0.716-1.599-1.599-1.599v0zM8.529 15.498c0 0.294-0.239 0.533-0.533 0.533s-0.533-0.239-0.533-0.533v0c0-0.294 0.239-0.533 0.533-0.533s0.533 0.239 0.533 0.533v0zM11.727 24.026h5.33v0.533c0 0.294-0.238 0.533-0.533 0.533h-4.265c-0.294 0-0.533-0.239-0.533-0.533v0-0.533zM1.067 24.56c0-0.294 0.238-0.533 0.533-0.533h9.062v0.533c0 0.883 0.716 1.599 1.599 1.599v0h4.265c0.883 0 1.599-0.716 1.599-1.599v0-0.533h9.062c0.294 0 0.533 0.239 0.533 0.533v2.132c0 0.294-0.239 0.533-0.533 0.533h-25.586c-0 0-0 0-0 0-0.294 0-0.533-0.239-0.533-0.533 0 0 0 0 0 0v0-2.132z"></path>
</symbol>
<symbol id="icon-envelope" viewBox="0 0 44 30">
<path   d="M36.917 0h-32.435c-2.064 0-3.743 1.675-3.743 3.734v22.404c0 2.059 1.679 3.734 3.743 3.734h32.435c2.064 0 3.743-1.675 3.743-3.734v-22.404c0-2.059-1.679-3.734-3.743-3.734zM36.917 2.489c0.17 0 0.331 0.035 0.478 0.096l-16.696 14.437-16.696-14.437c0.147-0.061 0.309-0.096 0.478-0.096h32.435zM36.917 27.383h-32.435c-0.688 0-1.248-0.558-1.248-1.245v-20.922l16.648 14.395c0.235 0.203 0.526 0.304 0.817 0.304s0.582-0.101 0.817-0.304l16.648-14.395v20.922c-0 0.687-0.559 1.245-1.248 1.245z"></path>
</symbol>
<symbol id="icon-facebook1" viewBox="0 0 36 32">
<path  d="M23.613 5.716h3.017v-4.848c-0.521-0.066-2.31-0.215-4.395-0.215-4.349 0-7.329 2.524-7.329 7.164v4.27h-4.8v5.42h4.8v13.637h5.885v-13.636h4.606l0.731-5.42h-5.338v-3.734c0.001-1.566 0.459-2.639 2.824-2.639z"></path>
</symbol>
<symbol id="icon-instagram2" viewBox="0 0 32 32">
<path  d="M30.544 10.256c-0.070-1.458-0.325-2.46-0.691-3.329-0.378-0.922-0.959-1.747-1.72-2.434-0.744-0.697-1.644-1.238-2.632-1.581-0.947-0.338-2.028-0.574-3.608-0.638-1.592-0.070-2.097-0.086-6.135-0.086s-4.543 0.016-6.129 0.080c-1.58 0.064-2.667 0.3-3.608 0.638-0.999 0.348-1.894 0.885-2.638 1.587-0.755 0.686-1.342 1.517-1.714 2.428-0.366 0.874-0.622 1.871-0.691 3.329-0.076 1.469-0.093 1.935-0.093 5.661s0.017 4.192 0.087 5.656c0.070 1.458 0.325 2.46 0.692 3.329 0.378 0.922 0.964 1.748 1.72 2.434 0.744 0.697 1.644 1.238 2.632 1.581 0.947 0.338 2.027 0.573 3.608 0.638 1.586 0.064 2.091 0.080 6.129 0.080s4.543-0.016 6.129-0.080c1.58-0.064 2.667-0.3 3.608-0.638 1.999-0.713 3.579-2.171 4.352-4.015 0.366-0.874 0.622-1.871 0.691-3.329 0.070-1.464 0.087-1.93 0.087-5.656s-0.006-4.192-0.076-5.656zM27.866 21.46c-0.064 1.34-0.308 2.064-0.511 2.546-0.5 1.196-1.528 2.144-2.824 2.605-0.523 0.188-1.313 0.413-2.76 0.472-1.568 0.064-2.039 0.080-6.007 0.080s-4.444-0.016-6.007-0.080c-1.452-0.059-2.237-0.284-2.76-0.472-0.645-0.22-1.232-0.568-1.708-1.024-0.494-0.445-0.871-0.981-1.11-1.576-0.203-0.482-0.447-1.212-0.511-2.546-0.070-1.447-0.087-1.882-0.087-5.543s0.017-4.101 0.087-5.543c0.064-1.34 0.308-2.064 0.511-2.546 0.238-0.595 0.616-1.136 1.116-1.576 0.482-0.456 1.063-0.804 1.708-1.024 0.523-0.188 1.313-0.413 2.76-0.472 1.569-0.064 2.039-0.080 6.007-0.080 3.974 0 4.444 0.016 6.007 0.080 1.452 0.059 2.237 0.284 2.76 0.472 0.645 0.22 1.232 0.568 1.708 1.024 0.494 0.445 0.871 0.981 1.11 1.576 0.203 0.482 0.447 1.211 0.511 2.546 0.070 1.447 0.087 1.882 0.087 5.543s-0.017 4.090-0.087 5.538z"></path>
<path  d="M15.758 8.862c-4.218 0-7.64 3.157-7.64 7.049s3.422 7.049 7.64 7.049c4.218 0 7.64-3.157 7.64-7.049s-3.422-7.049-7.64-7.049zM15.758 20.484c-2.736 0-4.956-2.048-4.956-4.573s2.22-4.573 4.956-4.573c2.736 0 4.956 2.048 4.956 4.573s-2.219 4.573-4.956 4.573z"></path>
<path  d="M25.484 8.583c0 0.909-0.799 1.646-1.784 1.646s-1.784-0.737-1.784-1.646c0-0.909 0.799-1.646 1.784-1.646s1.784 0.737 1.784 1.646z"></path>
</symbol>
<symbol id="icon-linkedin1" viewBox="0 0 34 32">
<path  d="M33.177 31.144v-0.001h0.008v-11.182c0-5.471-1.276-9.685-8.207-9.685-3.332 0-5.568 1.687-6.481 3.287h-0.096v-2.776h-6.572v20.356h6.843v-10.080c0-2.654 0.545-5.22 4.107-5.22 3.51 0 3.562 3.029 3.562 5.391v9.911h6.836z"></path>
<path  d="M0.686 10.788h6.851v20.356h-6.851v-20.356z"></path>
<path  d="M4.109 0.653c-2.191 0-3.968 1.64-3.968 3.661s1.778 3.696 3.968 3.696c2.191 0 3.968-1.674 3.968-3.696-0.001-2.021-1.779-3.661-3.968-3.661v0z"></path>
</symbol>
<symbol id="icon-logo1" viewBox="0 0 27 32">
<path  d="M3.659 0l4.376 4.428h12.206v12.351l4.376 4.428v-21.206h-20.958z"></path>
<path  d="M0.066 4.241v20.6h20.359v-8.188l-12.261-12.406-8.098-0.005zM16.547 21.828h-13.259v-13.854h0.937v12.916h12.322v0.938z"></path>
<path  d="M5.992 28.662l0.523-1.078h0.438l-0.763 1.438v0.837h-0.397v-0.837l-0.764-1.438h0.439l0.523 1.078zM8.239 29.329h-0.881l-0.184 0.53h-0.411l0.859-2.275h0.355l0.861 2.275h-0.412l-0.186-0.53zM7.468 29.010h0.659l-0.33-0.944-0.33 0.944zM9.797 29.244c0-0.105 0.029-0.202 0.086-0.289 0.057-0.089 0.17-0.193 0.339-0.314-0.089-0.111-0.151-0.206-0.186-0.284s-0.052-0.154-0.052-0.227c0-0.178 0.054-0.319 0.162-0.422s0.254-0.156 0.438-0.156c0.166 0 0.301 0.049 0.406 0.147 0.106 0.097 0.159 0.217 0.159 0.361 0 0.095-0.024 0.182-0.072 0.262-0.048 0.079-0.127 0.158-0.236 0.238l-0.155 0.113 0.439 0.519c0.063-0.125 0.095-0.264 0.095-0.417h0.33c0 0.28-0.066 0.51-0.197 0.689l0.334 0.395h-0.441l-0.128-0.152c-0.162 0.122-0.356 0.183-0.581 0.183s-0.405-0.059-0.541-0.178c-0.134-0.12-0.202-0.276-0.202-0.467zM10.55 29.587c0.128 0 0.248-0.043 0.359-0.128l-0.497-0.586-0.048 0.034c-0.125 0.095-0.188 0.203-0.188 0.325 0 0.105 0.034 0.191 0.102 0.256s0.158 0.098 0.272 0.098zM10.34 28.121c0 0.087 0.054 0.197 0.161 0.33l0.173-0.119 0.048-0.039c0.065-0.057 0.097-0.131 0.097-0.22 0-0.059-0.022-0.11-0.067-0.152-0.045-0.043-0.102-0.064-0.17-0.064-0.074 0-0.133 0.025-0.177 0.075s-0.066 0.113-0.066 0.189zM14.473 29.118c-0.023 0.243-0.113 0.432-0.269 0.569-0.156 0.135-0.364 0.203-0.623 0.203-0.181 0-0.341-0.043-0.48-0.128-0.137-0.086-0.244-0.209-0.319-0.367s-0.114-0.342-0.117-0.552v-0.212c0-0.215 0.038-0.404 0.114-0.567s0.185-0.29 0.327-0.378c0.143-0.088 0.307-0.133 0.494-0.133 0.251 0 0.453 0.068 0.606 0.205s0.242 0.329 0.267 0.578h-0.394c-0.019-0.164-0.067-0.281-0.144-0.353-0.076-0.073-0.188-0.109-0.336-0.109-0.172 0-0.304 0.063-0.397 0.189-0.092 0.125-0.139 0.309-0.141 0.552v0.202c0 0.246 0.044 0.433 0.131 0.563 0.089 0.129 0.218 0.194 0.388 0.194 0.155 0 0.272-0.035 0.35-0.105s0.128-0.186 0.148-0.348h0.394zM16.643 28.78c0 0.223-0.039 0.419-0.116 0.588-0.077 0.168-0.188 0.297-0.331 0.388-0.143 0.090-0.307 0.134-0.494 0.134-0.184 0-0.349-0.045-0.494-0.134-0.144-0.091-0.255-0.219-0.334-0.386-0.078-0.167-0.118-0.359-0.119-0.576v-0.128c0-0.222 0.039-0.418 0.117-0.588 0.079-0.17 0.19-0.299 0.333-0.389 0.144-0.091 0.308-0.136 0.494-0.136s0.349 0.045 0.492 0.134c0.144 0.088 0.255 0.217 0.333 0.384s0.118 0.361 0.119 0.583v0.127zM16.248 28.662c0-0.252-0.048-0.445-0.144-0.58-0.095-0.134-0.23-0.202-0.405-0.202-0.171 0-0.305 0.067-0.402 0.202-0.096 0.133-0.145 0.322-0.147 0.567v0.131c0 0.25 0.048 0.443 0.145 0.58s0.233 0.205 0.406 0.205c0.175 0 0.309-0.067 0.403-0.2 0.095-0.133 0.142-0.328 0.142-0.584v-0.119z"></path>
</symbol>
<symbol id="icon-logo2" viewBox="0 0 25 32">
<path  d="M10.447 1.806h0.084c0.156 0 0.324 0.016 0.49 0.030 0.734 0.052 1.463 0.162 2.179 0.329v-1.762c-0.738-0.185-1.491-0.305-2.25-0.358-0.288-0.022-0.595-0.036-0.909-0.044h-0.263c-1.523 0.006-3.039 0.201-4.515 0.582-1.68 0.419-3.293 1.075-4.79 1.948v17.475c1.442-0.783 2.976-1.381 4.566-1.779 1.256-0.32 2.539-0.517 3.833-0.588h0.051c0.216-0.011 0.433-0.017 0.655-0.019v-1.79c-1.681 0.022-3.353 0.244-4.982 0.662-0.602 0.157-1.185 0.325-1.731 0.513l-0.623 0.211v-13.625l0.266-0.128c2.032-0.963 4.229-1.524 6.471-1.651 0.019-0.001 0.037-0.001 0.056 0 0.248-0.013 0.497-0.019 0.741-0.019h0.28c0.129 0.003 0.258 0.006 0.388 0.014z"></path>
<path  d="M14.838 3.651c-0.409 0-0.814-0.014-1.205-0.044-0.467-0.034-0.947-0.091-1.401-0.167-0.277-0.047-0.55-0.103-0.814-0.164v17.275c1.12 0.277 2.271 0.413 3.425 0.404 1.523-0.006 3.039-0.201 4.515-0.581 1.68-0.42 3.294-1.075 4.792-1.948v-17.163c-1.441 0.783-2.975 1.381-4.564 1.781-1.551 0.398-3.145 0.603-4.747 0.609zM21.745 3.95l0.623-0.21v13.63l-0.266 0.128c-1.021 0.486-2.087 0.869-3.184 1.144-1.331 0.344-2.7 0.522-4.074 0.527-0.411 0-0.819-0.017-1.214-0.052l-0.427-0.038v-14.017l0.497 0.033c0.361 0.023 0.735 0.034 1.141 0.034 1.745-0.006 3.482-0.229 5.173-0.663 0.581-0.153 1.158-0.325 1.731-0.518z"></path>
<path  d="M1.684 25.977c-0.090-0.093-0.197-0.166-0.317-0.214s-0.247-0.071-0.376-0.066c-0.137-0.002-0.273 0.024-0.4 0.075-0.117 0.046-0.222 0.116-0.311 0.205s-0.156 0.196-0.201 0.313c-0.049 0.123-0.073 0.254-0.072 0.387v2.335c-0.006 0.165 0.026 0.328 0.092 0.479 0.055 0.12 0.135 0.226 0.233 0.313 0.093 0.079 0.203 0.135 0.321 0.166 0.114 0.032 0.231 0.048 0.349 0.049 0.13 0.001 0.259-0.027 0.377-0.081 0.117-0.051 0.222-0.124 0.311-0.216 0.087-0.091 0.156-0.197 0.204-0.313 0.050-0.118 0.075-0.244 0.075-0.372v-0.261h-0.61v0.208c0.002 0.071-0.010 0.142-0.036 0.208-0.020 0.050-0.050 0.095-0.089 0.131-0.038 0.031-0.081 0.053-0.128 0.067-0.041 0.014-0.084 0.021-0.128 0.022-0.054 0.006-0.11-0.002-0.16-0.024s-0.094-0.057-0.126-0.101c-0.058-0.094-0.086-0.203-0.081-0.313v-2.177c-0.004-0.121 0.022-0.241 0.075-0.349 0.032-0.049 0.077-0.089 0.129-0.114s0.112-0.034 0.17-0.027c0.053-0.002 0.105 0.009 0.152 0.032s0.089 0.057 0.12 0.099c0.068 0.090 0.104 0.2 0.101 0.313v0.202h0.604v-0.238c0.001-0.14-0.024-0.278-0.075-0.408-0.045-0.122-0.114-0.234-0.204-0.329z"></path>
<path  d="M5.31 25.95c-0.195-0.164-0.44-0.255-0.694-0.257-0.124 0.001-0.248 0.023-0.364 0.066-0.119 0.043-0.228 0.107-0.322 0.191-0.101 0.091-0.182 0.202-0.237 0.327-0.061 0.143-0.092 0.297-0.089 0.452v2.239c-0.004 0.158 0.026 0.314 0.089 0.459 0.055 0.12 0.136 0.227 0.237 0.313 0.093 0.087 0.203 0.154 0.322 0.197 0.117 0.043 0.24 0.065 0.364 0.066s0.248-0.022 0.364-0.066c0.121-0.044 0.233-0.111 0.33-0.197 0.097-0.087 0.176-0.194 0.23-0.313 0.063-0.144 0.093-0.301 0.089-0.459v-2.239c0.003-0.155-0.027-0.31-0.089-0.452-0.054-0.123-0.133-0.235-0.23-0.327zM5.025 28.969c0.005 0.060-0.003 0.12-0.024 0.176s-0.054 0.107-0.097 0.148c-0.081 0.068-0.182 0.105-0.287 0.105s-0.207-0.037-0.287-0.105c-0.043-0.041-0.076-0.092-0.097-0.148s-0.029-0.116-0.024-0.176v-2.239c-0.005-0.060 0.003-0.12 0.024-0.176s0.054-0.107 0.097-0.148c0.081-0.068 0.182-0.105 0.287-0.105s0.207 0.037 0.287 0.105c0.043 0.041 0.076 0.092 0.097 0.148s0.029 0.116 0.024 0.176v2.239z"></path>
<path  d="M10.072 29.969v-4.239h-0.587l-0.771 2.244h-0.011l-0.777-2.244h-0.581v4.239h0.606v-2.579h0.011l0.593 1.823h0.302l0.598-1.823h0.011v2.579h0.606z"></path>
<path  d="M13.513 26.027c-0.093-0.105-0.211-0.184-0.343-0.232-0.142-0.046-0.29-0.068-0.439-0.066h-0.9v4.239h0.604v-1.656h0.311c0.188 0.009 0.376-0.031 0.545-0.116 0.137-0.076 0.252-0.188 0.332-0.324 0.070-0.113 0.117-0.238 0.139-0.369 0.024-0.16 0.035-0.321 0.033-0.482 0.006-0.204-0.014-0.407-0.059-0.606-0.040-0.147-0.117-0.281-0.223-0.39zM13.201 27.319c-0.003 0.077-0.022 0.152-0.056 0.221-0.035 0.065-0.089 0.117-0.156 0.149-0.089 0.040-0.187 0.058-0.285 0.053h-0.276v-1.441h0.311c0.094-0.005 0.187 0.014 0.272 0.053 0.062 0.036 0.112 0.091 0.142 0.157 0.033 0.074 0.051 0.155 0.053 0.236 0 0.089 0 0.183 0 0.282s0.006 0.2 0 0.291h-0.006z"></path>
<path  d="M16.374 25.73h-0.495l-0.934 4.239h0.604l0.177-0.911h0.824l0.177 0.911h0.604l-0.957-4.239zM15.816 28.481l0.297-1.537h0.011l0.296 1.537h-0.604z"></path>
<path  d="M20.277 28.283h-0.011l-0.912-2.554h-0.581v4.239h0.604v-2.549h0.012l0.923 2.549h0.568v-4.239h-0.604v2.554z"></path>
<path  d="M23.968 25.73l-0.486 1.685h-0.012l-0.486-1.685h-0.64l0.83 2.447v1.792h0.604v-1.792l0.83-2.447h-0.64z"></path>
<path  d="M0 31.166h0.291v0.817h0.198v-0.817h0.29v-0.167h-0.778v0.167z"></path>
<path  d="M2.447 30.998l-0.381 0.984h0.21l0.081-0.224h0.392l0.084 0.224h0.215l-0.391-0.984h-0.21zM2.416 31.593l0.134-0.365 0.134 0.365h-0.268z"></path>
<path  d="M4.866 31.62h0.227v0.127c-0.066 0.053-0.149 0.082-0.234 0.083-0.040 0.002-0.079-0.005-0.116-0.021s-0.068-0.041-0.093-0.072c-0.052-0.075-0.078-0.165-0.073-0.257 0-0.219 0.095-0.329 0.283-0.329 0.050-0.005 0.099 0.008 0.14 0.037s0.070 0.071 0.082 0.12l0.195-0.038c-0.042-0.192-0.181-0.289-0.417-0.289-0.127-0.003-0.25 0.042-0.344 0.127-0.050 0.049-0.088 0.108-0.112 0.174s-0.034 0.135-0.029 0.205c-0.006 0.135 0.039 0.267 0.126 0.369 0.048 0.050 0.107 0.088 0.171 0.113s0.134 0.035 0.203 0.031c0.154 0.004 0.304-0.052 0.417-0.157v-0.388h-0.427v0.166z"></path>
<path  d="M7.337 30.998h-0.199v0.984h0.69v-0.167h-0.49v-0.817z"></path>
<path  d="M9.426 30.998h-0.199v0.984h0.199v-0.984z"></path>
<path  d="M11.469 31.656l-0.403-0.657h-0.193v0.984h0.185v-0.643l0.395 0.643h0.198v-0.984h-0.182v0.657z"></path>
<path  d="M13.315 31.549h0.49v-0.167h-0.49v-0.216h0.528v-0.167h-0.727v0.984h0.747v-0.167h-0.548v-0.266z"></path>
<path  d="M17.792 31.387h-0.388v-0.388h-0.198v0.984h0.198v-0.43h0.388v0.43h0.198v-0.984h-0.198v0.388z"></path>
<path  d="M19.649 31.549h0.492v-0.167h-0.492v-0.216h0.529v-0.167h-0.727v0.984h0.746v-0.167h-0.548v-0.266z"></path>
<path  d="M22.168 31.549c0.171-0.027 0.258-0.117 0.258-0.274 0.005-0.042-0.001-0.084-0.018-0.123s-0.044-0.072-0.078-0.096c-0.089-0.045-0.189-0.065-0.288-0.058h-0.417v0.984h0.198v-0.412h0.039c0.042-0.003 0.084 0.005 0.123 0.022 0.029 0.018 0.053 0.043 0.070 0.072l0.215 0.313h0.237l-0.12-0.192c-0.053-0.095-0.128-0.176-0.218-0.236zM21.969 31.413h-0.146v-0.247h0.156c0.068-0.006 0.136 0.002 0.201 0.023 0.014 0.013 0.026 0.029 0.033 0.046s0.011 0.037 0.010 0.056c-0.001 0.019-0.006 0.038-0.015 0.055s-0.022 0.032-0.037 0.043c-0.065 0.020-0.133 0.028-0.201 0.023z"></path>
<path  d="M24.067 31.549h0.49v-0.167h-0.49v-0.216h0.529v-0.167h-0.729v0.984h0.747v-0.167h-0.548v-0.266z"></path>
</symbol>
<symbol id="icon-logo3" viewBox="0 0 29 32">
<path  d="M4.418 31.103c0.010 0 0.021 0.003 0.030 0.007s0.018 0.011 0.025 0.018l0.143 0.161c-0.111 0.13-0.249 0.234-0.403 0.305-0.181 0.077-0.375 0.115-0.571 0.109-0.184 0.004-0.367-0.031-0.537-0.102-0.154-0.065-0.292-0.164-0.405-0.288-0.115-0.129-0.204-0.28-0.261-0.445-0.063-0.184-0.094-0.377-0.091-0.571-0.003-0.195 0.031-0.39 0.099-0.573 0.063-0.166 0.157-0.317 0.278-0.445 0.122-0.126 0.269-0.224 0.43-0.29 0.176-0.070 0.364-0.104 0.553-0.102 0.176-0.004 0.35 0.027 0.514 0.093 0.142 0.063 0.272 0.15 0.385 0.257l-0.12 0.171c-0.008 0.012-0.019 0.023-0.030 0.031-0.014 0.010-0.031 0.014-0.048 0.013-0.019-0.001-0.037-0.008-0.052-0.018l-0.064-0.046-0.090-0.058c-0.039-0.022-0.079-0.041-0.12-0.057-0.053-0.019-0.108-0.035-0.163-0.046-0.070-0.013-0.142-0.019-0.213-0.018-0.136-0.002-0.271 0.024-0.398 0.077-0.118 0.048-0.224 0.122-0.312 0.215-0.089 0.099-0.158 0.216-0.202 0.343-0.050 0.145-0.075 0.298-0.073 0.452-0.002 0.156 0.023 0.312 0.073 0.46 0.044 0.126 0.111 0.242 0.199 0.341 0.082 0.093 0.184 0.165 0.297 0.212 0.117 0.049 0.242 0.074 0.369 0.073 0.073 0.001 0.146-0.004 0.219-0.015 0.118-0.015 0.231-0.056 0.331-0.122 0.050-0.034 0.097-0.072 0.141-0.113 0.018-0.018 0.043-0.028 0.068-0.029z"></path>
<path  d="M8.555 30.296c0.002 0.194-0.031 0.386-0.097 0.567-0.058 0.165-0.15 0.315-0.27 0.44s-0.264 0.224-0.423 0.289c-0.351 0.136-0.738 0.136-1.089 0-0.159-0.066-0.302-0.165-0.421-0.29-0.119-0.128-0.212-0.279-0.272-0.445-0.129-0.367-0.129-0.769 0-1.136 0.061-0.166 0.154-0.317 0.272-0.447 0.12-0.121 0.263-0.216 0.421-0.279 0.35-0.139 0.739-0.139 1.089 0 0.159 0.066 0.303 0.165 0.423 0.29 0.118 0.127 0.21 0.276 0.27 0.44 0.066 0.183 0.099 0.376 0.097 0.571zM8.179 30.296c0.003-0.155-0.020-0.309-0.068-0.456-0.040-0.126-0.105-0.242-0.192-0.341-0.084-0.094-0.187-0.167-0.303-0.215-0.255-0.1-0.537-0.1-0.792 0-0.115 0.048-0.219 0.121-0.303 0.215-0.087 0.098-0.153 0.215-0.193 0.341-0.091 0.297-0.091 0.615 0 0.912 0.040 0.126 0.106 0.242 0.193 0.341 0.084 0.093 0.187 0.166 0.303 0.213 0.255 0.097 0.536 0.097 0.792 0 0.115-0.047 0.219-0.12 0.303-0.213 0.086-0.099 0.151-0.215 0.192-0.341 0.048-0.147 0.071-0.301 0.068-0.456z"></path>
<path  d="M11.378 30.774l0.038 0.102c0.014-0.036 0.027-0.069 0.041-0.102 0.014-0.034 0.029-0.068 0.047-0.1l0.915-1.694c0.018-0.029 0.034-0.047 0.052-0.053 0.024-0.008 0.050-0.011 0.075-0.009h0.27v2.755h-0.321v-2.026c0-0.026 0-0.055 0-0.086-0.002-0.032-0.002-0.063 0-0.095l-0.921 1.718c-0.012 0.026-0.030 0.047-0.054 0.063s-0.051 0.023-0.079 0.023h-0.052c-0.028 0-0.055-0.007-0.079-0.023s-0.042-0.037-0.054-0.063l-0.947-1.729c0 0.033 0 0.066 0 0.099s0 0.062 0 0.088v2.026h-0.31v-2.75h0.27c0.025-0.002 0.051 0.002 0.075 0.009 0.022 0.011 0.040 0.030 0.050 0.053l0.935 1.696c0.018 0.031 0.034 0.064 0.047 0.098z"></path>
<path  d="M14.822 30.638v1.032h-0.358v-2.752h0.799c0.151-0.003 0.301 0.017 0.446 0.060 0.116 0.033 0.223 0.092 0.315 0.171 0.080 0.075 0.141 0.167 0.179 0.27 0.042 0.112 0.063 0.232 0.061 0.352 0.002 0.121-0.021 0.24-0.066 0.352-0.043 0.106-0.109 0.2-0.193 0.275-0.092 0.083-0.2 0.145-0.317 0.182-0.139 0.045-0.285 0.067-0.432 0.064l-0.433-0.007zM14.822 30.342h0.433c0.094 0.001 0.188-0.013 0.278-0.042 0.074-0.025 0.142-0.066 0.201-0.119 0.054-0.050 0.095-0.113 0.122-0.182 0.029-0.074 0.044-0.152 0.043-0.232 0.004-0.076-0.008-0.153-0.036-0.224s-0.071-0.135-0.125-0.188c-0.137-0.109-0.309-0.162-0.482-0.148h-0.433v1.134z"></path>
<path  d="M19.636 31.673h-0.283c-0.028 0.001-0.056-0.008-0.079-0.026-0.020-0.017-0.036-0.039-0.047-0.064l-0.244-0.666h-1.223l-0.253 0.666c-0.009 0.024-0.025 0.046-0.045 0.062-0.023 0.019-0.051 0.028-0.081 0.027h-0.283l1.075-2.756h0.373l1.089 2.756zM17.863 30.65h1.010l-0.426-1.122c-0.033-0.084-0.059-0.171-0.081-0.259l-0.041 0.144c-0.012 0.044-0.027 0.084-0.039 0.117l-0.423 1.12z"></path>
<path  d="M21.183 28.931c0.021 0.012 0.040 0.029 0.054 0.049l1.567 2.077c0-0.033 0-0.066 0-0.097s0-0.062 0-0.091v-1.951h0.321v2.756h-0.179c-0.025 0.001-0.051-0.005-0.073-0.016-0.022-0.013-0.042-0.030-0.057-0.051l-1.565-2.075c0.002 0.032 0.002 0.063 0 0.095 0 0.031 0 0.058 0 0.084v1.964h-0.321v-2.756h0.19c0.022-0.001 0.044 0.004 0.065 0.013z"></path>
<path  d="M25.764 30.577v1.094h-0.358v-1.094l-0.99-1.66h0.321c0.028-0.002 0.055 0.007 0.077 0.024 0.019 0.018 0.036 0.039 0.048 0.062l0.62 1.071c0.025 0.046 0.047 0.088 0.064 0.128s0.032 0.078 0.045 0.117l0.047-0.119c0.017-0.043 0.038-0.085 0.061-0.126l0.611-1.078c0.013-0.021 0.029-0.041 0.047-0.058 0.021-0.019 0.049-0.029 0.077-0.027h0.324l-0.992 1.667z"></path>
<path  d="M11.201 24.293c0.156 0.020 0.313 0.036 0.473 0.051 2.417-1.101 4.461-2.902 5.877-5.18s2.142-4.929 2.087-7.624l-2.663-2.712c0.541 2.869 0.288 5.836-0.732 8.567s-2.766 5.12-5.042 6.898z"></path>
<path  d="M10.25 24.167l0.072 0.015c2.433-1.772 4.288-4.247 5.325-7.104s1.208-5.965 0.492-8.922l-3.793-3.862c1.534 3.175 2.152 6.728 1.781 10.246s-1.715 6.857-3.876 9.628z"></path>
<path  d="M23.114 14.725c-0.644 2.961-2.21 5.632-4.463 7.616-0.658 0.582-1.368 1.101-2.12 1.55 1.835-0.549 3.521-1.52 4.93-2.838s2.5-2.947 3.192-4.763l-1.538-1.565z"></path>
<path  d="M22.51 14.289l-2.19-2.23c-0.042 2.543-0.752 5.028-2.056 7.197s-3.155 3.943-5.36 5.137h0.011c0.491-0 0.982-0.030 1.47-0.089 2.061-0.857 3.881-2.219 5.299-3.967s2.389-3.825 2.826-6.047z"></path>
<path  d="M10.566 2.664l-2.613-2.664c-2.336 0.919-4.345 2.535-5.764 4.636s-2.182 4.589-2.19 7.139v0c0.009 2.818 0.94 5.552 2.647 7.77s4.091 3.793 6.775 4.476c2.397-2.973 3.8-6.647 4.005-10.488s-0.796-7.648-2.861-10.869z"></path>
<path  d="M28.547 13.878c-0.009-3.343-1.318-6.546-3.639-8.91s-5.467-3.696-8.75-3.706c-1.517-0.002-3.021 0.283-4.436 0.841l15.998 16.291c0.548-1.44 0.828-2.971 0.827-4.515z"></path>
</symbol>
<symbol id="icon-logo4" viewBox="0 0 56 32">
<path  d="M8.635 9.548h-0.002c-1.575 0-2.852 1.33-2.852 2.971v0.002c0 1.641 1.277 2.971 2.852 2.971h0.002c1.575 0 2.852-1.33 2.852-2.971v-0.002c0-1.641-1.277-2.971-2.852-2.971z"></path>
<path  d="M29.687 8.599c-0.004-2.279-0.875-4.463-2.422-6.074s-3.644-2.519-5.831-2.524v0c-2.189 0.004-4.286 0.911-5.834 2.523s-2.419 3.796-2.424 6.076v12.566c0 0 16.509-1.915 16.511-12.564v-0.002z"></path>
<path  d="M0 25.289c0.004 1.586 0.61 3.105 1.687 4.226s2.535 1.753 4.057 1.758c1.522-0.005 2.98-0.636 4.057-1.757s1.683-2.64 1.687-4.225v-8.744c0 0-11.488 1.334-11.488 8.742zM5.744 26.856c-0.297 0-0.588-0.092-0.836-0.264s-0.44-0.417-0.554-0.703-0.144-0.601-0.086-0.905c0.058-0.304 0.201-0.583 0.412-0.802s0.478-0.368 0.77-0.429c0.292-0.060 0.594-0.029 0.869 0.089s0.51 0.319 0.675 0.577c0.165 0.258 0.253 0.561 0.253 0.87 0.001 0.206-0.038 0.411-0.113 0.601s-0.186 0.364-0.326 0.51c-0.14 0.146-0.306 0.262-0.489 0.341s-0.379 0.12-0.577 0.12v-0.006z"></path>
<path  d="M17.61 25.884h-1.256v1.297h-0.654v-3.174h2.067v0.53h-1.413v0.82h1.256v0.528zM20.754 25.666c0 0.312-0.055 0.587-0.166 0.822s-0.269 0.417-0.475 0.545c-0.205 0.128-0.44 0.192-0.706 0.192-0.263 0-0.498-0.063-0.704-0.19s-0.366-0.307-0.48-0.541c-0.113-0.235-0.171-0.506-0.172-0.811v-0.157c0-0.312 0.056-0.587 0.168-0.824 0.113-0.238 0.273-0.421 0.477-0.547 0.206-0.128 0.442-0.192 0.706-0.192s0.499 0.064 0.704 0.192c0.206 0.126 0.366 0.309 0.477 0.547 0.113 0.237 0.17 0.511 0.17 0.822v0.142zM20.091 25.522c0-0.333-0.060-0.586-0.179-0.759s-0.289-0.259-0.51-0.259c-0.219 0-0.389 0.086-0.508 0.257-0.119 0.17-0.18 0.42-0.181 0.75v0.155c0 0.324 0.060 0.576 0.179 0.754s0.291 0.268 0.515 0.268c0.22 0 0.388-0.086 0.506-0.257 0.118-0.173 0.177-0.424 0.179-0.754v-0.155zM22.875 26.348c0-0.124-0.044-0.218-0.131-0.283-0.087-0.067-0.244-0.137-0.471-0.209-0.227-0.074-0.406-0.147-0.539-0.218-0.36-0.195-0.541-0.457-0.541-0.787 0-0.172 0.048-0.324 0.144-0.458 0.097-0.135 0.236-0.241 0.416-0.316 0.182-0.076 0.385-0.113 0.61-0.113 0.227 0 0.429 0.041 0.606 0.124 0.177 0.081 0.315 0.197 0.412 0.347 0.099 0.15 0.148 0.32 0.148 0.51h-0.654c0-0.145-0.046-0.258-0.137-0.338-0.092-0.081-0.22-0.122-0.386-0.122-0.16 0-0.284 0.034-0.373 0.102-0.089 0.067-0.133 0.156-0.133 0.266 0 0.103 0.052 0.19 0.155 0.259 0.105 0.070 0.258 0.135 0.46 0.196 0.372 0.112 0.643 0.251 0.813 0.416s0.255 0.372 0.255 0.619c0 0.275-0.104 0.491-0.312 0.648-0.208 0.156-0.488 0.233-0.839 0.233-0.244 0-0.467-0.044-0.667-0.133-0.201-0.090-0.354-0.213-0.46-0.368-0.105-0.156-0.157-0.336-0.157-0.541h0.656c0 0.35 0.209 0.525 0.628 0.525 0.156 0 0.277-0.031 0.364-0.094 0.087-0.064 0.131-0.153 0.131-0.266zM26.366 24.536h-0.972v2.645h-0.654v-2.645h-0.959v-0.53h2.586v0.53zM28.651 25.805h-1.256v0.85h1.474v0.525h-2.128v-3.174h2.124v0.53h-1.469v0.757h1.256v0.512zM30.428 26.019h-0.521v1.162h-0.654v-3.174h1.18c0.375 0 0.664 0.084 0.868 0.251s0.305 0.403 0.305 0.709c0 0.217-0.047 0.397-0.142 0.543-0.093 0.144-0.235 0.259-0.425 0.344l0.687 1.297v0.030h-0.702l-0.595-1.162zM29.907 25.489h0.528c0.164 0 0.291-0.041 0.382-0.124 0.090-0.084 0.135-0.2 0.135-0.347 0-0.15-0.043-0.267-0.129-0.353-0.084-0.086-0.214-0.129-0.39-0.129h-0.525v0.953zM33.87 26.063v1.118h-0.654v-3.174h1.238c0.238 0 0.448 0.044 0.628 0.131 0.182 0.087 0.321 0.212 0.419 0.373 0.097 0.16 0.146 0.342 0.146 0.547 0 0.311-0.107 0.557-0.321 0.737-0.212 0.179-0.507 0.268-0.883 0.268h-0.573zM33.87 25.533h0.584c0.173 0 0.305-0.041 0.395-0.122 0.092-0.081 0.137-0.198 0.137-0.349 0-0.156-0.046-0.281-0.137-0.377s-0.218-0.145-0.379-0.148h-0.6v0.996zM38.008 25.805h-1.256v0.85h1.474v0.525h-2.128v-3.174h2.124v0.53h-1.469v0.757h1.256v0.512zM41.043 24.536h-0.972v2.645h-0.654v-2.645h-0.959v-0.53h2.586v0.53zM43.328 25.805h-1.256v0.85h1.474v0.525h-2.128v-3.174h2.124v0.53h-1.469v0.757h1.256v0.512zM45.105 26.019h-0.521v1.162h-0.654v-3.174h1.179c0.375 0 0.664 0.084 0.868 0.251s0.305 0.403 0.305 0.709c0 0.217-0.047 0.397-0.142 0.543-0.093 0.144-0.235 0.259-0.425 0.344l0.687 1.297v0.030h-0.702l-0.595-1.162zM44.584 25.489h0.528c0.164 0 0.291-0.041 0.381-0.124 0.090-0.084 0.135-0.2 0.135-0.347 0-0.15-0.043-0.267-0.129-0.353-0.084-0.086-0.214-0.129-0.39-0.129h-0.525v0.953zM48.428 26.348c0-0.124-0.044-0.218-0.131-0.283-0.087-0.067-0.244-0.137-0.471-0.209-0.227-0.074-0.406-0.147-0.538-0.218-0.36-0.195-0.541-0.457-0.541-0.787 0-0.172 0.048-0.324 0.144-0.458 0.097-0.135 0.236-0.241 0.416-0.316 0.182-0.076 0.385-0.113 0.611-0.113 0.227 0 0.429 0.041 0.606 0.124 0.177 0.081 0.315 0.197 0.412 0.347 0.099 0.15 0.148 0.32 0.148 0.51h-0.654c0-0.145-0.046-0.258-0.137-0.338-0.092-0.081-0.22-0.122-0.386-0.122-0.16 0-0.284 0.034-0.373 0.102-0.089 0.067-0.133 0.156-0.133 0.266 0 0.103 0.052 0.19 0.155 0.259 0.105 0.070 0.258 0.135 0.46 0.196 0.372 0.112 0.643 0.251 0.813 0.416s0.255 0.372 0.255 0.619c0 0.275-0.104 0.491-0.312 0.648-0.208 0.156-0.488 0.233-0.839 0.233-0.244 0-0.467-0.044-0.667-0.133-0.201-0.090-0.354-0.213-0.46-0.368-0.105-0.156-0.157-0.336-0.157-0.541h0.656c0 0.35 0.209 0.525 0.628 0.525 0.156 0 0.277-0.031 0.364-0.094 0.087-0.064 0.131-0.153 0.131-0.266z"></path>
</symbol>
<symbol id="icon-logo5" viewBox="0 0 40 32">
<path  d="M3.055 26.742c0.156 0.195 0.24 0.438 0.236 0.688 0.008 0.163-0.021 0.326-0.084 0.476s-0.159 0.285-0.281 0.393c-0.304 0.231-0.681 0.343-1.061 0.317h-1.865v-4.361h1.827c0.361-0.024 0.718 0.078 1.012 0.29 0.118 0.099 0.211 0.224 0.273 0.366s0.089 0.296 0.081 0.45c0.011 0.241-0.065 0.477-0.212 0.667-0.142 0.173-0.338 0.293-0.556 0.341 0.247 0.045 0.471 0.177 0.63 0.373zM0.868 26.084h0.781c0.177 0.013 0.354-0.038 0.496-0.145 0.059-0.053 0.104-0.119 0.133-0.193s0.041-0.153 0.034-0.233c0.006-0.079-0.006-0.158-0.035-0.232s-0.073-0.14-0.13-0.194c-0.147-0.11-0.329-0.162-0.511-0.147h-0.768v1.144zM2.222 27.756c0.063-0.055 0.112-0.123 0.144-0.2s0.046-0.16 0.041-0.243c0.005-0.084-0.010-0.168-0.042-0.246s-0.083-0.147-0.146-0.202c-0.153-0.114-0.341-0.17-0.53-0.158h-0.819v1.199h0.83c0.187 0.011 0.372-0.043 0.524-0.151z"></path>
<path  d="M6.79 28.617l-1.016-1.704h-0.382v1.704h-0.874v-4.361h1.655c0.417-0.029 0.83 0.103 1.152 0.371 0.231 0.237 0.371 0.549 0.393 0.879s-0.073 0.659-0.27 0.925c-0.204 0.235-0.483 0.392-0.789 0.443l1.082 1.743h-0.951zM5.391 26.318h0.715c0.497 0 0.745-0.22 0.745-0.66 0.005-0.090-0.008-0.18-0.040-0.264s-0.080-0.161-0.143-0.226c-0.157-0.131-0.359-0.195-0.562-0.177h-0.724l0.008 1.327z"></path>
<path  d="M11.568 27.739h-1.742l-0.308 0.878h-0.917l1.6-4.312h0.991l1.594 4.312h-0.917l-0.301-0.878zM11.335 27.079l-0.637-1.841-0.637 1.841h1.273z"></path>
<path  d="M17.55 28.617h-0.868l-1.946-2.965v2.965h-0.866v-4.361h0.866l1.946 2.983v-2.983h0.868v4.361z"></path>
<path  d="M22.502 27.573c-0.179 0.329-0.453 0.597-0.785 0.769-0.378 0.192-0.797 0.286-1.22 0.275h-1.545v-4.361h1.545c0.422-0.011 0.841 0.081 1.22 0.268 0.332 0.168 0.606 0.433 0.785 0.761 0.179 0.355 0.272 0.747 0.272 1.144s-0.093 0.789-0.272 1.144zM21.509 27.469c0.248-0.29 0.384-0.659 0.384-1.041s-0.136-0.751-0.384-1.041c-0.299-0.262-0.69-0.396-1.086-0.371h-0.603v2.823h0.603c0.397 0.025 0.787-0.108 1.086-0.371z"></path>
<path  d="M12.111 0c0 0 11.201 4.246 10.963 10.39v10.392c0 0-11.193-4.248-10.959-10.392l-0.004-10.39z"></path>
<path  d="M33.054 18.349c2.115-1.462 4.562-2.367 7.117-2.633v-3.253c-2.943 1.139-5.44 3.204-7.117 5.886z"></path>
<path  d="M31.783 19.329c1.731-3.5 4.733-6.202 8.388-7.548v-9.374c0 0-15.952 6.048-15.614 14.797v14.795c0 0 0.711-0.271 1.829-0.778 0-0.473 0-0.95 0.051-1.429 0.33-4.062 2.253-7.826 5.347-10.464z"></path>
<path  d="M30.266 24.825c0.084-1.026 0.271-2.041 0.558-3.029-1.926 2.279-3.093 5.106-3.335 8.085-0.023 0.281-0.036 0.562-0.043 0.852 0.906-0.437 1.961-0.982 3.068-1.623-0.283-1.409-0.366-2.851-0.248-4.284z"></path>
<path  d="M30.9 24.878c-0.106 1.296-0.040 2.601 0.197 3.879 4.358-2.618 9.255-6.664 9.066-11.553v-0.426c-3.114 0.35-6.027 1.716-8.292 3.89-0.53 1.347-0.858 2.766-0.972 4.21z"></path>
</symbol>
<symbol id="icon-logo6" viewBox="0 0 58 32">
<path  d="M29.12 14.854c-0.272-0.424-0.402-0.926-0.371-1.431v-2.075c0-0.636 0.123-1.119 0.369-1.45s0.669-0.495 1.268-0.494c0.563 0 0.963 0.141 1.2 0.422 0.258 0.359 0.383 0.798 0.355 1.241v0.488h-1.008v-0.494c0.004-0.162-0.006-0.323-0.029-0.483-0.014-0.109-0.065-0.211-0.144-0.287-0.103-0.082-0.234-0.122-0.365-0.112-0.138-0.010-0.275 0.032-0.384 0.118-0.088 0.085-0.146 0.196-0.167 0.317-0.029 0.169-0.042 0.341-0.040 0.513v2.518c-0.016 0.243 0.029 0.486 0.129 0.707 0.050 0.075 0.12 0.134 0.201 0.171s0.171 0.051 0.26 0.040c0.129 0.011 0.257-0.030 0.357-0.114 0.082-0.082 0.135-0.19 0.15-0.306 0.023-0.167 0.034-0.336 0.031-0.505v-0.511h1.008v0.466c0.028 0.462-0.094 0.92-0.348 1.304-0.232 0.308-0.626 0.462-1.206 0.462s-1.018-0.165-1.266-0.507z"></path>
<path  d="M33.315 14.876c-0.254-0.323-0.382-0.794-0.382-1.416v-2.182c0-0.616 0.127-1.083 0.382-1.399s0.68-0.474 1.277-0.473c0.592 0 1.016 0.158 1.27 0.473 0.254 0.317 0.384 0.783 0.384 1.399v2.182c0 0.616-0.129 1.089-0.388 1.414s-0.68 0.488-1.266 0.488-1.020-0.165-1.277-0.485zM35.061 14.352c0.091-0.202 0.133-0.424 0.121-0.646v-2.672c0.012-0.218-0.029-0.435-0.119-0.633-0.051-0.076-0.122-0.137-0.206-0.174s-0.175-0.050-0.266-0.037c-0.091-0.013-0.183 0-0.266 0.037s-0.155 0.097-0.207 0.174c-0.092 0.198-0.133 0.415-0.121 0.633v2.685c-0.013 0.222 0.029 0.444 0.121 0.646 0.059 0.068 0.131 0.123 0.213 0.16s0.17 0.057 0.259 0.057 0.178-0.019 0.259-0.057c0.081-0.037 0.154-0.092 0.213-0.16v-0.013z"></path>
<path  d="M37.458 9.468h1.085l0.816 4.027 0.834-4.027h1.056l0.106 5.812h-0.78l-0.083-4.040-0.805 4.040h-0.626l-0.834-4.054-0.077 4.054h-0.789l0.098-5.812z"></path>
<path  d="M42.571 9.468h1.69c0.973 0 1.46 0.55 1.46 1.65 0 1.054-0.513 1.58-1.537 1.579h-0.576v2.583h-1.043l0.006-5.812zM44.014 11.952c0.103 0.013 0.208 0.004 0.307-0.028s0.19-0.085 0.267-0.156c0.12-0.196 0.172-0.427 0.15-0.656 0.005-0.177-0.011-0.355-0.050-0.528-0.015-0.058-0.041-0.112-0.077-0.159s-0.081-0.087-0.132-0.117c-0.145-0.070-0.305-0.102-0.465-0.093h-0.405v1.737h0.405z"></path>
<path  d="M47.225 9.468h1.12l1.149 5.812h-0.972l-0.227-1.34h-0.999l-0.234 1.34h-0.987l1.149-5.812zM48.182 13.267l-0.39-2.44-0.39 2.44h0.78z"></path>
<path  d="M50.423 9.468h0.73l1.398 3.316v-3.316h0.866v5.812h-0.695l-1.406-3.461v3.461h-0.895l0.002-5.812z"></path>
<path  d="M55.443 13.064l-1.162-3.588h0.978l0.709 2.305 0.665-2.305h0.958l-1.147 3.588v2.216h-1.001v-2.216z"></path>
<path  d="M30.731 17.822v0.304h-0.851v2.362h-0.357v-2.362h-0.855v-0.304h2.063z"></path>
<path  d="M33.398 20.488h-0.275c-0.028 0.002-0.056-0.007-0.077-0.025-0.021-0.015-0.037-0.037-0.046-0.061l-0.246-0.633h-1.181l-0.246 0.633c-0.007 0.026-0.020 0.051-0.038 0.072-0.022 0.018-0.049 0.027-0.077 0.025h-0.275l1.043-2.666h0.363l1.056 2.655zM31.671 19.498h0.985l-0.417-1.085c-0.031-0.082-0.057-0.166-0.077-0.251-0.015 0.051-0.027 0.099-0.040 0.141l-0.038 0.112-0.413 1.083z"></path>
<path  d="M35.197 20.226c0.065 0.003 0.131 0.003 0.196 0 0.056-0.006 0.112-0.016 0.167-0.032 0.051-0.013 0.101-0.029 0.15-0.049 0.046-0.019 0.092-0.042 0.14-0.065v-0.599h-0.417c-0.010 0.001-0.021-0.001-0.030-0.005s-0.019-0.009-0.026-0.017c-0.007-0.006-0.012-0.014-0.016-0.022s-0.005-0.018-0.005-0.027v-0.205h0.809v1.022c-0.066 0.048-0.136 0.090-0.209 0.127-0.074 0.037-0.152 0.068-0.231 0.091-0.085 0.025-0.173 0.044-0.261 0.055-0.101 0.011-0.203 0.017-0.305 0.017-0.18 0.002-0.358-0.032-0.526-0.099-0.156-0.064-0.298-0.158-0.417-0.279-0.116-0.122-0.208-0.265-0.269-0.422-0.066-0.177-0.098-0.364-0.096-0.553-0.002-0.19 0.030-0.379 0.094-0.557 0.060-0.158 0.152-0.302 0.269-0.422 0.119-0.12 0.261-0.214 0.417-0.277 0.179-0.068 0.368-0.102 0.559-0.099 0.097-0 0.194 0.008 0.29 0.023 0.085 0.014 0.168 0.037 0.248 0.068 0.073 0.028 0.143 0.063 0.209 0.106 0.064 0.042 0.125 0.088 0.181 0.139l-0.1 0.165c-0.008 0.015-0.020 0.028-0.034 0.037s-0.031 0.014-0.047 0.014c-0.023-0.001-0.045-0.008-0.065-0.021-0.031-0.017-0.065-0.038-0.102-0.063-0.044-0.028-0.091-0.052-0.14-0.072-0.062-0.025-0.126-0.045-0.192-0.059-0.087-0.016-0.176-0.024-0.265-0.023-0.138-0.002-0.274 0.023-0.403 0.074-0.116 0.047-0.221 0.119-0.307 0.211-0.086 0.096-0.153 0.209-0.194 0.331-0.093 0.289-0.093 0.6 0 0.889 0.046 0.125 0.117 0.24 0.209 0.336 0.086 0.091 0.189 0.163 0.305 0.211 0.133 0.046 0.273 0.064 0.413 0.053z"></path>
<path  d="M38.522 20.184h1.139v0.304h-1.487v-2.666h0.357l-0.008 2.362z"></path>
<path  d="M40.846 20.488h-0.357v-2.666h0.357v2.666z"></path>
<path  d="M42.172 17.834c0.021 0.012 0.040 0.029 0.054 0.049l1.525 2.009c-0.002-0.032-0.002-0.063 0-0.095 0-0.030 0-0.059 0-0.087v-1.9h0.311v2.676h-0.179c-0.027 0.002-0.053-0.003-0.077-0.015-0.022-0.013-0.041-0.030-0.056-0.051l-1.523-2.007c0 0.032 0 0.061 0 0.091s0 0.057 0 0.082v1.9h-0.298v-2.666h0.186c0.020 0 0.040 0.004 0.058 0.013z"></path>
<path  d="M46.688 17.822v0.293h-1.264v0.88h1.024v0.283h-1.024v0.91h1.264v0.293h-1.631v-2.659h1.631z"></path>
<path  d="M9.309 1.359l15.839 4.551v15.946l-15.839-4.548v-15.948zM8.293 0v18.082l17.869 5.135v-18.080l-17.869-5.137z"></path>
<path  d="M17.871 31.611l-17.871-5.139v-18.080l17.871 5.137v18.082z"></path>
<path  d="M8.59 1.155l15.632 4.493-6.648 6.729-15.634-4.496 6.65-6.726zM8.294 0l-8.294 8.392 17.871 5.137 8.292-8.392-17.869-5.137z"></path>
<path  d="M18.876 30.593l7.286-7.374-7.286-2.096v9.47z"></path>
</symbol>
<symbol id="icon-smartphone" viewBox="0 0 21 32">
<path  d="M18.133 0h-14.933c-1.765 0-3.2 1.34-3.2 2.987v25.889c0 1.647 1.435 2.987 3.2 2.987h14.933c1.765 0 3.2-1.34 3.2-2.987v-25.889c0-1.647-1.435-2.987-3.2-2.987zM3.2 1.991h14.933c0.589 0 1.067 0.446 1.067 0.996v20.91h-17.067v-20.91c0-0.549 0.478-0.996 1.067-0.996zM18.133 29.872h-14.933c-0.589 0-1.067-0.446-1.067-0.996v-2.987h17.067v2.987c0 0.55-0.478 0.996-1.067 0.996z"></path>
<path  d="M5.021 27.176c0.417 0.389 0.417 1.020 0 1.409s-1.092 0.389-1.508 0c-0.417-0.389-0.417-1.020 0-1.409s1.092-0.389 1.508 0z"></path>
</symbol>
<symbol id="icon-twitter1" viewBox="0 0 36 32">
<path  d="M34.3 6.445c-1.229 0.497-2.538 0.827-3.903 0.987 1.404-0.774 2.476-1.99 2.98-3.455-1.309 0.72-2.755 1.229-4.296 1.513-1.243-1.222-3.015-1.978-4.948-1.978-3.751 0-6.77 2.809-6.77 6.253 0 0.495 0.045 0.972 0.157 1.425-5.632-0.253-10.616-2.744-13.963-6.538-0.584 0.936-0.927 2.007-0.927 3.16 0 2.165 1.208 4.084 3.009 5.195-1.088-0.019-2.156-0.311-3.061-0.77 0 0.019 0 0.044 0 0.069 0 3.038 2.348 5.561 5.428 6.142-0.551 0.139-1.152 0.206-1.776 0.206-0.434 0-0.872-0.023-1.283-0.107 0.878 2.476 3.368 4.295 6.33 4.354-2.305 1.664-5.231 2.666-8.399 2.666-0.556 0-1.088-0.023-1.621-0.086 3.001 1.786 6.557 2.805 10.392 2.805 12.466 0 19.281-9.528 19.281-17.787 0-0.276-0.010-0.543-0.025-0.808 1.345-0.88 2.474-1.98 3.395-3.245z"></path>
</symbol>
<symbol id="icon-infodevstudiocom" viewBox="0 0 286 32">
<path  d="M5.585 23.467h-3.543v-15.778h3.543v15.778zM1.822 3.59c0-0.546 0.171-0.998 0.512-1.357 0.35-0.361 0.845-0.54 1.487-0.54 0.64 0 1.137 0.179 1.487 0.54 0.35 0.358 0.525 0.811 0.525 1.357 0 0.533-0.175 0.981-0.525 1.342-0.35 0.35-0.845 0.525-1.487 0.525-0.64 0-1.137-0.175-1.487-0.525-0.318-0.336-0.513-0.79-0.513-1.289 0-0.019 0-0.038 0.001-0.057l-0 0.003zM13.342 7.686l0.102 1.824c1.167-1.408 2.699-2.114 4.595-2.114 3.285 0 4.958 1.882 5.015 5.643v10.428h-3.541v-10.223c0-1.003-0.22-1.741-0.657-2.219-0.427-0.484-1.133-0.725-2.116-0.725-1.429 0-2.494 0.644-3.194 1.937v11.23h-3.541v-15.778h3.339zM28.527 23.467v-13.154h-2.406v-2.624h2.404v-1.444c0-1.749 0.486-3.102 1.459-4.053 0.973-0.954 2.334-1.429 4.083-1.429 0.623 0 1.284 0.085 1.984 0.26l-0.087 2.773c-0.384-0.075-0.825-0.118-1.277-0.118-0.028 0-0.056 0-0.084 0.001l0.004-0c-1.692 0-2.539 0.87-2.539 2.609v1.402h3.211v2.624h-3.209v13.154h-3.548zM37.801 15.43c0-1.545 0.305-2.935 0.917-4.171 0.614-1.244 1.474-2.197 2.581-2.859 1.109-0.67 2.383-1.005 3.823-1.005 2.129 0 3.853 0.685 5.175 2.057 1.333 1.37 2.052 3.187 2.159 5.453l0.015 0.832c0 1.557-0.301 2.944-0.905 4.171-0.569 1.196-1.45 2.165-2.537 2.827l-0.029 0.016c-1.109 0.672-2.391 1.007-3.851 1.007-2.225 0-4.011-0.74-5.353-2.219-1.331-1.487-1.997-3.465-1.997-5.935v-0.175zM41.344 15.738c0 1.623 0.335 2.897 1.007 3.821 0.67 0.913 1.604 1.372 2.799 1.372s2.125-0.469 2.786-1.402c0.67-0.932 1.007-2.3 1.007-4.096 0-1.596-0.346-2.859-1.037-3.793-0.681-0.932-1.609-1.399-2.784-1.399-1.158 0-2.076 0.461-2.756 1.387-0.683 0.913-1.022 2.283-1.022 4.111zM79.639 15.913c-0.117 2.432-0.715 4.352-1.792 5.76-1.082 1.399-2.545 2.101-4.393 2.101-1.758 0-2.935-0.749-3.529-2.246-0.444 0.687-1.026 1.246-1.711 1.651l-0.024 0.013c-0.653 0.367-1.338 0.553-2.057 0.553-1.421 0-2.498-0.585-3.238-1.749-0.727-1.167-1.005-2.729-0.832-4.683 0.14-1.582 0.551-3.037 1.185-4.364l-0.033 0.076c0.623-1.274 1.408-2.255 2.349-2.944 0.954-0.702 1.963-1.052 3.034-1.052 0.817 0 1.536 0.102 2.159 0.307 0.631 0.205 1.37 0.627 2.217 1.269l-0.759 8.209c-0.183 1.926 0.371 2.889 1.664 2.889 0.992 0 1.803-0.531 2.434-1.589 0.642-1.071 0.992-2.451 1.052-4.143 0.164-3.586-0.531-6.334-2.086-8.239-1.547-1.905-3.874-2.859-6.985-2.859-1.907 0-3.599 0.476-5.077 1.429-1.468 0.954-2.633 2.334-3.499 4.143-0.864 1.798-1.342 3.849-1.429 6.153-0.117 2.345 0.16 4.365 0.832 6.067 0.681 1.692 1.715 2.98 3.106 3.863 1.399 0.885 3.106 1.329 5.12 1.329 0.815 0 1.664-0.098 2.551-0.292 0.894-0.194 1.651-0.457 2.274-0.789l0.555 1.999c-0.593 0.39-1.395 0.7-2.406 0.934-0.909 0.23-1.953 0.363-3.028 0.363-0.002 0-0.004 0-0.006 0h0c-2.47 0-4.589-0.523-6.357-1.574-1.771-1.039-3.098-2.551-3.983-4.535-0.913-2.050-1.316-4.506-1.21-7.364 0.115-2.662 0.715-5.056 1.792-7.174 1.079-2.129 2.554-3.782 4.42-4.958 1.877-1.178 4.011-1.764 6.4-1.764 2.423 0 4.503 0.533 6.244 1.604 1.749 1.058 3.057 2.59 3.923 4.593 0.864 1.993 1.237 4.331 1.122 7.014zM64.926 17.312c-0.128 1.323-0.011 2.33 0.35 3.019 0.358 0.683 0.932 1.022 1.719 1.022 0.525 0 1.022-0.228 1.487-0.687 0.469-0.465 0.847-1.103 1.139-1.909l0.655-7.189c-0.419-0.17-0.904-0.271-1.412-0.277l-0.002-0c-1.079 0-1.958 0.512-2.639 1.532-0.683 1.011-1.114 2.509-1.297 4.491zM82.718 15.46c0-2.432 0.561-4.38 1.69-5.847 1.129-1.478 2.639-2.219 4.535-2.219 1.673 0 3.023 0.585 4.053 1.751v-8.079h3.543v22.4h-3.206l-0.175-1.634c-1.060 1.284-2.475 1.926-4.245 1.926-1.845 0-3.343-0.745-4.491-2.231-1.137-1.487-1.707-3.509-1.707-6.067zM86.259 15.767c0 1.604 0.307 2.859 0.917 3.761 0.625 0.896 1.504 1.344 2.641 1.344 1.451 0 2.509-0.649 3.179-1.941v-6.737c-0.651-1.265-1.7-1.897-3.149-1.897-1.148 0-2.033 0.457-2.654 1.372-0.623 0.905-0.934 2.27-0.934 4.096zM107.785 23.759c-2.246 0-4.070-0.704-5.47-2.116-1.389-1.419-2.084-3.305-2.084-5.658v-0.437c0-1.574 0.301-2.98 0.905-4.215 0.581-1.206 1.458-2.191 2.539-2.885l0.028-0.017c1.020-0.649 2.264-1.035 3.597-1.035 0.027 0 0.054 0 0.081 0l-0.004-0c2.15 0 3.806 0.685 4.973 2.057 1.178 1.37 1.766 3.309 1.766 5.818v1.429h-10.31c0.107 1.301 0.54 2.334 1.297 3.093 0.768 0.757 1.73 1.137 2.886 1.137 1.623 0 2.946-0.657 3.968-1.969l1.909 1.822c-0.639 0.942-1.496 1.691-2.501 2.185l-0.038 0.017c-1.001 0.489-2.178 0.775-3.421 0.775-0.042 0-0.084-0-0.126-0.001l0.006 0zM107.358 10.24c-0.971 0-1.758 0.341-2.362 1.020-0.593 0.683-0.973 1.63-1.137 2.844h6.752v-0.262c-0.077-1.186-0.395-2.080-0.947-2.684-0.555-0.612-1.323-0.917-2.304-0.917zM122.831 18.976l3.341-11.287h3.659l-5.468 15.778h-3.076l-5.513-15.778h3.674l3.383 11.285zM141.498 19.179c0.001-0.019 0.001-0.041 0.001-0.063 0-0.586-0.314-1.098-0.783-1.377l-0.007-0.004c-0.512-0.329-1.374-0.621-2.581-0.875-1.203-0.252-2.21-0.574-3.017-0.96-1.771-0.858-2.654-2.097-2.654-3.721 0-1.361 0.574-2.498 1.719-3.413 1.148-0.913 2.607-1.37 4.375-1.37 1.886 0 3.407 0.467 4.565 1.399 1.167 0.934 1.749 2.144 1.749 3.631h-3.543c0-0.681-0.254-1.244-0.759-1.692-0.506-0.457-1.175-0.685-2.012-0.685-0.777 0-1.414 0.179-1.909 0.54-0.444 0.313-0.73 0.823-0.73 1.4 0 0.016 0 0.031 0.001 0.047l-0-0.002c0 0.544 0.228 0.966 0.685 1.267 0.457 0.303 1.38 0.608 2.771 0.919 1.391 0.301 2.479 0.666 3.266 1.094 0.798 0.418 1.387 0.924 1.764 1.515 0.39 0.595 0.585 1.314 0.585 2.159 0 1.421-0.589 2.573-1.764 3.456-1.178 0.875-2.718 1.314-4.623 1.314-1.295 0-2.447-0.235-3.456-0.7-1.011-0.469-1.801-1.109-2.364-1.926-0.527-0.733-0.844-1.649-0.845-2.639v-0h3.441c0.049 0.836 0.363 1.483 0.947 1.941 0.585 0.446 1.357 0.67 2.319 0.67 0.934 0 1.643-0.175 2.129-0.527 0.443-0.304 0.73-0.808 0.73-1.378 0-0.008-0-0.015-0-0.023v0.001zM153.12 3.853v3.836h2.784v2.624h-2.784v8.809c0 0.602 0.117 1.041 0.35 1.312 0.243 0.262 0.67 0.395 1.284 0.395 0.405 0 0.821-0.049 1.237-0.147v2.741c-0.697 0.207-1.499 0.33-2.328 0.337l-0.004 0c-2.722 0-4.083-1.502-4.083-4.508v-8.939h-2.596v-2.624h2.596v-3.836h3.541zM168.781 21.922c-1.039 1.225-2.517 1.835-4.433 1.835-1.711 0-3.008-0.499-3.893-1.5-0.875-1.003-1.312-2.451-1.312-4.346v-10.223h3.543v10.178c0 2.003 0.832 3.004 2.494 3.004 1.722 0 2.882-0.619 3.486-1.852v-11.33h3.541v15.778h-3.339l-0.085-1.547zM175.753 15.46c0-2.432 0.563-4.38 1.692-5.847 1.126-1.478 2.639-2.219 4.535-2.219 1.673 0 3.023 0.585 4.053 1.751v-8.079h3.543v22.4h-3.209l-0.175-1.634c-1.060 1.284-2.475 1.926-4.243 1.926-1.847 0-3.345-0.745-4.493-2.231-1.137-1.487-1.707-3.509-1.707-6.067zM179.294 15.767c0 1.604 0.307 2.859 0.919 3.761 0.623 0.896 1.504 1.344 2.641 1.344 1.449 0 2.509-0.649 3.179-1.941v-6.737c-0.651-1.265-1.7-1.897-3.151-1.897-1.146 0-2.031 0.457-2.654 1.372-0.621 0.905-0.932 2.27-0.932 4.096zM197.641 23.467h-3.543v-15.778h3.543v15.778zM193.877 3.59c0-0.546 0.171-0.998 0.512-1.357 0.35-0.361 0.845-0.54 1.487-0.54 0.64 0 1.137 0.179 1.487 0.54 0.35 0.358 0.525 0.811 0.525 1.357 0 0.533-0.175 0.981-0.525 1.342-0.35 0.35-0.845 0.525-1.487 0.525-0.64 0-1.137-0.175-1.487-0.525-0.318-0.336-0.513-0.79-0.513-1.289 0-0.019 0-0.038 0.001-0.057l-0 0.003zM201.446 15.43c0-1.545 0.307-2.935 0.917-4.171 0.575-1.2 1.46-2.174 2.552-2.842l0.029-0.017c1.109-0.67 2.383-1.005 3.823-1.005 2.129 0 3.855 0.685 5.175 2.057 1.333 1.37 2.052 3.187 2.159 5.453l0.015 0.832c0 1.557-0.301 2.944-0.905 4.171-0.569 1.196-1.45 2.165-2.537 2.827l-0.029 0.016c-1.109 0.672-2.391 1.007-3.851 1.007-2.225 0-4.011-0.74-5.35-2.219-1.333-1.487-1.999-3.465-1.999-5.935v-0.175zM204.99 15.738c0 1.623 0.335 2.897 1.007 3.821 0.67 0.913 1.604 1.372 2.799 1.372s2.125-0.469 2.786-1.402c0.67-0.932 1.007-2.3 1.007-4.096 0-1.596-0.346-2.859-1.037-3.793-0.681-0.932-1.609-1.399-2.784-1.399-1.158 0-2.076 0.461-2.756 1.387-0.683 0.913-1.022 2.283-1.022 4.111zM221.92 19.733c0.661 0 1.173 0.19 1.532 0.57 0.335 0.345 0.541 0.816 0.541 1.336 0 0.022-0 0.045-0.001 0.067l0-0.003c0 0.555-0.179 1.015-0.54 1.387-0.358 0.358-0.87 0.538-1.532 0.538-0.631 0-1.131-0.179-1.502-0.54-0.342-0.336-0.554-0.803-0.554-1.32 0-0.024 0-0.047 0.001-0.070l-0 0.003c-0.001-0.018-0.001-0.040-0.001-0.062 0-0.519 0.206-0.991 0.541-1.336l-0 0c0.358-0.38 0.864-0.57 1.515-0.57zM235.134 20.928c0.883 0 1.617-0.256 2.202-0.772 0.582-0.514 0.894-1.152 0.932-1.909h3.341c-0.041 0.981-0.346 1.899-0.919 2.756-0.593 0.857-1.38 1.54-2.299 1.996l-0.035 0.016c-0.981 0.495-2.042 0.745-3.179 0.745-2.206 0-3.957-0.715-5.25-2.144s-1.939-3.403-1.939-5.922v-0.363c0-2.402 0.642-4.322 1.924-5.76 1.284-1.451 3.034-2.176 5.25-2.176 1.877 0 3.403 0.55 4.58 1.649 1.186 1.088 1.807 2.524 1.867 4.303h-3.341c-0.038-0.905-0.35-1.649-0.932-2.231-0.574-0.582-1.308-0.875-2.202-0.875-1.148 0-2.033 0.418-2.656 1.254-0.621 0.826-0.937 2.084-0.947 3.776v0.57c0 1.711 0.307 2.989 0.919 3.836 0.621 0.836 1.517 1.254 2.684 1.254zM244.218 15.43c0-1.545 0.307-2.935 0.919-4.171 0.612-1.244 1.472-2.197 2.581-2.859 1.107-0.67 2.381-1.005 3.821-1.005 2.129 0 3.855 0.685 5.175 2.057 1.333 1.37 2.052 3.187 2.159 5.453l0.015 0.832c0 1.557-0.301 2.944-0.905 4.171-0.569 1.196-1.45 2.165-2.537 2.827l-0.029 0.016c-1.107 0.672-2.391 1.007-3.851 1.007-2.225 0-4.009-0.74-5.35-2.219-1.333-1.487-1.999-3.465-1.999-5.935v-0.175zM247.761 15.738c0 1.623 0.335 2.897 1.007 3.821 0.67 0.913 1.604 1.372 2.799 1.372 1.197 0 2.125-0.469 2.786-1.402 0.672-0.932 1.007-2.3 1.007-4.096 0-1.596-0.346-2.859-1.037-3.793-0.681-0.932-1.609-1.399-2.784-1.399-1.158 0-2.076 0.461-2.756 1.387-0.681 0.913-1.022 2.283-1.022 4.111zM265.815 7.689l0.102 1.647c1.107-1.293 2.624-1.941 4.548-1.941 2.11 0 3.554 0.809 4.333 2.423 1.148-1.615 2.761-2.421 4.841-2.421 1.741 0 3.034 0.48 3.881 1.444 0.855 0.96 1.293 2.381 1.312 4.258v10.368h-3.543v-10.268c0-1.001-0.22-1.734-0.657-2.202-0.437-0.465-1.161-0.7-2.172-0.7-0.809 0-1.47 0.22-1.984 0.657-0.506 0.427-0.86 0.992-1.065 1.692l0.015 10.82h-3.543v-10.383c-0.049-1.856-0.998-2.786-2.844-2.786-1.421 0-2.426 0.578-3.019 1.737v11.433h-3.546v-15.778h3.341z"></path>
</symbol>
<symbol id="icon-380961111111" viewBox="0 0 320 32">
<path  d="M12.507 14.731h6.925v4.048h-6.925v7.893h-4.304v-7.893h-6.963v-4.048h6.963v-7.381h4.304v7.381zM28.675 14.037h2.696c1.36-0.011 2.437-0.363 3.227-1.056 0.803-0.693 1.203-1.696 1.203-3.008 0-1.264-0.333-2.24-1.003-2.933-0.656-0.707-1.664-1.059-3.024-1.059-1.192 0-2.171 0.347-2.933 1.040-0.768 0.68-1.149 1.573-1.149 2.68h-4.435c0-1.36 0.36-2.603 1.077-3.72 0.728-1.12 1.736-1.987 3.027-2.605 1.234-0.6 2.685-0.95 4.218-0.95 0.048 0 0.096 0 0.144 0.001l-0.007-0c2.651 0 4.728 0.667 6.235 2.005 1.52 1.325 2.28 3.173 2.28 5.541 0 1.192-0.384 2.315-1.149 3.373-0.755 1.045-1.733 1.835-2.933 2.371 1.456 0.496 2.563 1.28 3.317 2.349 0.765 1.069 1.147 2.347 1.147 3.829 0 2.381-0.819 4.277-2.461 5.688-1.627 1.408-3.773 2.115-6.435 2.115-2.552 0-4.64-0.68-6.269-2.043-1.629-1.36-2.443-3.173-2.443-5.432h4.427c0 1.165 0.392 2.115 1.168 2.843 0.789 0.731 1.848 1.093 3.173 1.093 1.373 0 2.453-0.363 3.245-1.093 0.789-0.728 1.184-1.787 1.184-3.173 0-1.395-0.413-2.469-1.24-3.224s-2.053-1.131-3.68-1.131h-2.608v-3.499zM62.232 9.792c0 1.301-0.333 2.461-1.003 3.483-0.667 1.008-1.579 1.803-2.733 2.387 1.387 0.645 2.448 1.525 3.189 2.643 0.755 1.12 1.131 2.381 1.131 3.792 0 2.333-0.789 4.187-2.371 5.56-1.579 1.36-3.68 2.043-6.307 2.043-2.637 0-4.752-0.688-6.344-2.061-1.579-1.373-2.368-3.219-2.368-5.541 0-1.421 0.373-2.699 1.128-3.827 0.755-1.131 1.813-2 3.173-2.608-1.115-0.56-2.032-1.371-2.702-2.362l-0.016-0.025c-0.618-0.957-0.985-2.127-0.985-3.382 0-0.036 0-0.071 0.001-0.106l-0 0.005c0-2.261 0.731-4.053 2.187-5.379 1.459-1.323 3.429-1.987 5.907-1.987 2.493 0 4.467 0.664 5.925 1.987 1.459 1.325 2.187 3.12 2.187 5.379zM58.387 21.877c0-1.312-0.395-2.371-1.184-3.173-0.779-0.813-1.813-1.219-3.101-1.219s-2.32 0.4-3.099 1.2c-0.765 0.805-1.147 1.867-1.147 3.192 0 1.301 0.376 2.339 1.131 3.117 0.765 0.779 1.813 1.168 3.152 1.168s2.376-0.379 3.12-1.131c0.752-0.755 1.128-1.805 1.128-3.155zM57.821 9.957c0-1.157-0.333-2.104-1.003-2.845-0.667-0.755-1.568-1.131-2.699-1.131s-2.021 0.36-2.68 1.075c-0.656 0.707-0.984 1.672-0.984 2.899 0 1.216 0.328 2.181 0.987 2.899 0.667 0.72 1.565 1.077 2.696 1.077s2.024-0.36 2.68-1.077c0.667-0.717 1.003-1.68 1.003-2.899zM94.827 18.16c0 3.813-0.72 6.693-2.152 8.64-1.421 1.931-3.592 2.899-6.507 2.899-2.869 0-5.032-0.944-6.491-2.827-1.448-1.893-2.187-4.696-2.224-8.403v-4.595c0-3.813 0.709-6.677 2.133-8.587 1.432-1.907 3.613-2.861 6.544-2.861 2.904 0 5.067 0.931 6.488 2.789 1.435 1.859 2.171 4.64 2.208 8.347v4.597zM90.395 13.2c0-2.491-0.339-4.315-1.021-5.467-0.68-1.168-1.76-1.752-3.243-1.752-1.448 0-2.509 0.555-3.192 1.659-0.68 1.093-1.040 2.808-1.075 5.141v6.016c0 2.48 0.347 4.325 1.040 5.541s1.779 1.824 3.261 1.824c1.424 0 2.475-0.56 3.155-1.68 0.68-1.128 1.040-2.891 1.075-5.285v-5.997zM112.051 18.232c-1.483 1.568-3.213 2.352-5.195 2.352-2.333 0-4.192-0.816-5.579-2.443-1.387-1.64-2.080-3.792-2.080-6.453 0-1.749 0.355-3.336 1.059-4.757 0.707-1.424 1.707-2.528 3.008-3.32 1.301-0.789 2.808-1.184 4.523-1.184 2.672 0 4.792 0.997 6.36 2.989 1.568 1.995 2.352 4.661 2.352 8.003v1.24c0 4.789-1.080 8.44-3.245 10.955-2.16 2.517-5.387 3.792-9.68 3.829h-0.528v-3.664h0.64c2.613-0.037 4.616-0.661 6.013-1.877 1.397-1.227 2.181-3.117 2.352-5.669zM107.784 17.12c0.888 0 1.72-0.256 2.499-0.765 0.779-0.512 1.379-1.216 1.805-2.115v-1.733c0-1.955-0.4-3.528-1.203-4.72s-1.84-1.787-3.12-1.787c-1.275 0-2.293 0.528-3.061 1.587-0.752 1.045-1.131 2.368-1.131 3.973 0 1.664 0.384 3.008 1.149 4.027 0.765 1.024 1.787 1.533 3.061 1.533zM135.24 2.664v3.664h-0.547c-2.48 0.037-4.459 0.717-5.941 2.043-1.483 1.323-2.365 3.2-2.645 5.632 1.424-1.493 3.24-2.24 5.451-2.24 2.347 0 4.195 0.827 5.541 2.477 1.36 1.653 2.043 3.787 2.043 6.4 0 2.696-0.795 4.883-2.387 6.56-1.581 1.667-3.659 2.499-6.235 2.499-2.651 0-4.8-0.979-6.453-2.933-1.643-1.96-2.461-4.523-2.461-7.696v-1.512c0-4.653 1.131-8.301 3.389-10.939 2.272-2.637 5.533-3.952 9.787-3.952h0.456zM130.48 15.333c-2.002 0.006-3.716 1.233-4.436 2.976l-0.012 0.032v1.349c0 1.968 0.413 3.536 1.24 4.701 0.827 1.155 1.893 1.733 3.208 1.733 1.312 0 2.352-0.493 3.117-1.477s1.147-2.277 1.147-3.883c0-1.603-0.387-2.909-1.165-3.92-0.685-0.922-1.771-1.513-2.995-1.513-0.036 0-0.073 0.001-0.109 0.002l0.005-0zM165.461 29.333h-4.413v-21.309l-6.507 2.224v-3.741l10.355-3.808h0.565v26.635zM187.427 29.333h-4.413v-21.309l-6.507 2.224v-3.741l10.355-3.808h0.565v26.635zM209.392 29.333h-4.413v-21.309l-6.507 2.224v-3.741l10.355-3.808h0.565v26.635zM241.4 29.333h-4.411v-21.309l-6.507 2.224v-3.741l10.352-3.808h0.565v26.635zM263.365 29.333h-4.411v-21.309l-6.507 2.224v-3.741l10.352-3.808h0.565v26.635zM295.373 29.333h-4.411v-21.309l-6.507 2.224v-3.741l10.355-3.808h0.563v26.635zM317.339 29.333h-4.411v-21.309l-6.507 2.224v-3.741l10.355-3.808h0.563v26.635z"></path>
</symbol>
</defs>
</svg>
