<svg width="20" height="18" viewBox="0 0 20 18" fill="none" xmlns="http://www.w3.org/2000/svg">
<g clip-path="url(#clip0)">
<path d="M19.294 3.62514C18.6028 3.90492 17.8663 4.09037 17.0984 4.18041C17.8884 3.7452 18.4913 3.06131 18.7748 2.23699C18.0382 2.64218 17.225 2.92839 16.3584 3.0881C15.659 2.40099 14.6623 1.97543 13.5749 1.97543C11.4652 1.97543 9.76679 3.55547 9.76679 5.49246C9.76679 5.77116 9.79235 6.03915 9.85508 6.29427C6.68707 6.1517 3.88384 4.75068 2.0007 2.61645C1.67193 3.14277 1.47909 3.7452 1.47909 4.39372C1.47909 5.61144 2.15869 6.69089 3.17171 7.31582C2.55948 7.30511 1.95888 7.1411 1.45004 6.88276C1.45004 6.89348 1.45004 6.90742 1.45004 6.92135C1.45004 8.63002 2.77092 10.0493 4.50304 10.3762C4.19286 10.4545 3.8548 10.492 3.50396 10.492C3.26 10.492 3.01372 10.4791 2.78253 10.4319C3.27626 11.8244 4.6773 12.8481 6.3432 12.8813C5.04672 13.8171 3.40057 14.381 1.61849 14.381C1.30599 14.381 1.00627 14.3681 0.706543 14.3327C2.39452 15.3371 4.395 15.9106 6.55231 15.9106C13.5644 15.9106 17.3981 10.5509 17.3981 5.90516C17.3981 5.74972 17.3923 5.59965 17.3842 5.45065C18.1405 4.95542 18.7759 4.33691 19.294 3.62514Z" fill="#AFB1B8"/>
</g>
<defs>
<clipPath id="clip0">
<rect width="18.5875" height="17.151" fill="white" transform="translate(0.706543 0.367523)"/>
</clipPath>
</defs>
</svg>
